<svg width="24" height="24" viewBox="0 0 24 24" fill="none" xmlns="http://www.w3.org/2000/svg">
<path fill-rule="evenodd" clip-rule="evenodd" d="M8.986 3.47595C7.972 2.04295 5.944 1.80095 4.718 3.09195L3.148 4.74395C2.612 5.30895 2.205 6.09195 2.254 7.00595C2.354 8.85595 3.138 12.6399 7.272 16.9909C11.701 21.6549 15.926 21.8889 17.75 21.7089C18.497 21.6359 19.102 21.2369 19.545 20.7699L20.965 19.2749C22.27 17.9009 21.89 15.6019 20.258 14.6619L18.347 13.5619C17.248 12.9299 15.887 13.1109 15.012 14.0309L14.604 14.4609C14.5081 14.4876 14.4071 14.49 14.31 14.4679C13.908 14.4019 13.04 14.0469 11.607 12.5389C10.179 11.0359 9.827 10.1099 9.761 9.65495C9.729 9.43495 9.761 9.31895 9.774 9.28295L9.777 9.27695L10.021 9.01895C10.989 8.00095 11.057 6.40695 10.247 5.25895L8.986 3.47595ZM5.806 4.12495C6.328 3.57495 7.249 3.61795 7.761 4.34195L9.021 6.12595C9.444 6.72295 9.379 7.51695 8.934 7.98595L8.647 8.28795L9.179 8.79295C9.00371 8.62278 8.82602 8.4551 8.646 8.28995L8.644 8.29095L8.641 8.29395L8.635 8.30095L8.622 8.31595C8.58332 8.35949 8.54852 8.40634 8.518 8.45595C8.466 8.53695 8.409 8.64595 8.361 8.77995C8.263 9.05495 8.211 9.41795 8.277 9.87195C8.407 10.7649 8.992 11.9639 10.519 13.5719C12.042 15.1759 13.192 15.8059 14.069 15.9479C14.52 16.0209 14.885 15.9629 15.161 15.8539C15.3145 15.794 15.4571 15.7092 15.583 15.6029L15.618 15.5699L15.632 15.5559L15.639 15.5499L15.642 15.5459L15.643 15.5449C15.643 15.5449 15.645 15.5429 15.117 15.0429L15.645 15.5429L16.1 15.0639C16.485 14.6579 17.086 14.5669 17.599 14.8619L19.509 15.9619C20.33 16.4339 20.491 17.5959 19.878 18.2419L18.458 19.7369C18.178 20.0309 17.886 20.1889 17.603 20.2169C16.168 20.3579 12.423 20.2369 8.359 15.9579C4.483 11.8779 3.833 8.43495 3.752 6.92595C3.73 6.52595 3.904 6.12595 4.236 5.77695L5.806 4.12495Z" fill="white"/>
<path d="M18 9.75015C18.1989 9.75015 18.3897 9.67114 18.5303 9.53048C18.671 9.38983 18.75 9.19907 18.75 9.00015C18.75 8.80124 18.671 8.61048 18.5303 8.46982C18.3897 8.32917 18.1989 8.25015 18 8.25015H16.81L19.53 5.53015C19.6037 5.46149 19.6628 5.37869 19.7038 5.28669C19.7448 5.19469 19.7668 5.09538 19.7686 4.99468C19.7704 4.89397 19.7518 4.79394 19.7141 4.70056C19.6764 4.60717 19.6203 4.52233 19.549 4.45112C19.4778 4.3799 19.393 4.32375 19.2996 4.28603C19.2062 4.24831 19.1062 4.22979 19.0055 4.23156C18.9048 4.23334 18.8055 4.25538 18.7135 4.29637C18.6215 4.33736 18.5387 4.39647 18.47 4.47015L15.75 7.19015V6.00015C15.75 5.80124 15.671 5.61048 15.5303 5.46982C15.3897 5.32917 15.1989 5.25015 15 5.25015C14.8011 5.25015 14.6103 5.32917 14.4697 5.46982C14.329 5.61048 14.25 5.80124 14.25 6.00015V9.00015C14.25 9.41415 14.586 9.75015 15 9.75015H18Z" fill="white"/>
</svg>
