<svg aria-hidden="true" style="position:absolute;width:0;height:0" width="24" height="24" xmlns="http://www.w3.org/2000/svg" overflow="hidden"><defs><symbol id="solar:asteroid-linear" viewBox="0 0 24 24"><path fill-rule="evenodd" clip-rule="evenodd" d="M2.75 12C2.75 6.89137 6.89137 2.75 12 2.75C13.9652 2.75 15.7873 3.36284 17.2855 4.40782C14.99 8.06518 16.8201 13.0973 20.9287 14.4257C19.863 18.3577 16.2693 21.25 12 21.25C11.459 21.25 10.9289 21.2036 10.4135 21.1145C11.9954 16.3602 7.67944 11.4262 2.75693 12.3615C2.75233 12.2416 2.75 12.1211 2.75 12ZM8.95609 20.7375C10.273 16.999 6.81681 13.048 2.93628 13.8562C3.59081 17.0693 5.9111 19.6768 8.95609 20.7375ZM21.2035 12.9334C21.2342 12.6264 21.25 12.315 21.25 12C21.25 9.40234 20.1792 7.05478 18.455 5.37461C16.8718 8.137 18.2159 11.8331 21.2035 12.9334ZM12 1.25C6.06294 1.25 1.25 6.06294 1.25 12C1.25 17.9371 6.06294 22.75 12 22.75C17.9371 22.75 22.75 17.9371 22.75 12C22.75 6.06294 17.9371 1.25 12 1.25ZM8.75 8.5C8.75 7.55255 9.55255 6.75 10.5 6.75C11.4475 6.75 12.25 7.55255 12.25 8.5C12.25 9.44745 11.4475 10.25 10.5 10.25C9.55255 10.25 8.75 9.44745 8.75 8.5ZM10.5 5.25C8.72412 5.25 7.25 6.72412 7.25 8.5C7.25 10.2759 8.72412 11.75 10.5 11.75C12.2759 11.75 13.75 10.2759 13.75 8.5C13.75 6.72412 12.2759 5.25 10.5 5.25ZM14.75 16C14.75 15.9402 14.7749 15.8772 14.8261 15.8261C14.8772 15.7749 14.9402 15.75 15 15.75C15.0598 15.75 15.1228 15.7749 15.1739 15.8261C15.2251 15.8772 15.25 15.9402 15.25 16C15.25 16.0598 15.2251 16.1228 15.1739 16.1739C15.1228 16.2251 15.0598 16.25 15 16.25C14.9402 16.25 14.8772 16.2251 14.8261 16.1739C14.7749 16.1228 14.75 16.0598 14.75 16ZM15 14.25C14.0411 14.25 13.25 15.0411 13.25 16C13.25 16.9589 14.0411 17.75 15 17.75C15.9589 17.75 16.75 16.9589 16.75 16C16.75 15.0411 15.9589 14.25 15 14.25Z" fill="currentcolor"/></symbol><symbol id="solar:airbuds-right-linear" viewBox="0 0 24 24"><path fill-rule="evenodd" clip-rule="evenodd" d="M11.25 5.33221C11.2617 3.01847 13.2234 1.25 15.44 1.25H15.444C18.8765 1.26837 21.731 4.12232 21.75 7.55485L21.75 7.559L21.75 18.667C21.75 18.9889 21.7658 19.4162 21.7461 19.8057C21.6552 21.6123 20.1012 22.75 18.5 22.75C16.8986 22.75 15.3446 21.6121 15.254 19.8054C15.2335 19.4157 15.25 18.9865 15.25 18.667V12C15.25 11.8803 15.1197 11.75 15 11.75C12.9518 11.75 11.25 10.0482 11.25 8L11.25 5.33221ZM12.75 5.33802V8C12.75 9.21979 13.7802 10.25 15 10.25C15.9589 10.25 16.75 11.0411 16.75 12V17.917H20.25V7.56116C20.2345 4.95223 18.047 2.7651 15.438 2.75C13.9873 2.75104 12.7582 3.91088 12.75 5.33802ZM20.2561 19.417H16.7436C16.7441 19.5201 16.7464 19.6223 16.752 19.7276L16.7521 19.7297C16.7954 20.5987 17.5498 21.25 18.5 21.25C19.4499 21.25 20.2042 20.5991 20.2479 19.7303C20.2533 19.6244 20.2556 19.5209 20.2561 19.417Z" fill="currentcolor"/><path fill-rule="evenodd" clip-rule="evenodd" d="M15 4.162C15.4628 4.162 15.838 4.53719 15.838 5V8C15.838 8.46281 15.4628 8.838 15 8.838C14.5372 8.838 14.162 8.46281 14.162 8V5C14.162 4.53719 14.5372 4.162 15 4.162Z" fill="currentcolor"/><path fill-rule="evenodd" clip-rule="evenodd" d="M7.5 11.75C4.87665 11.75 2.75 13.8766 2.75 16.5C2.75 19.1234 4.87665 21.25 7.5 21.25C10.1234 21.25 12.25 19.1234 12.25 16.5C12.25 13.8766 10.1234 11.75 7.5 11.75ZM1.25 16.5C1.25 13.0482 4.04822 10.25 7.5 10.25C10.9518 10.25 13.75 13.0482 13.75 16.5C13.75 19.9518 10.9518 22.75 7.5 22.75C4.04822 22.75 1.25 19.9518 1.25 16.5Z" fill="currentcolor"/><path fill-rule="evenodd" clip-rule="evenodd" d="M9.73467 4.94916C9.81798 5.35491 9.55659 5.75137 9.15084 5.83467C7.50234 6.17314 6.17314 7.50234 5.83467 9.15084C5.75137 9.55659 5.35491 9.81798 4.94916 9.73467C4.54341 9.65137 4.28202 9.25491 4.36533 8.84916C4.82446 6.61294 6.61294 4.82446 8.84916 4.36533C9.25491 4.28202 9.65137 4.54341 9.73467 4.94916Z" fill="currentcolor"/><path fill-rule="evenodd" clip-rule="evenodd" d="M6 13.25C5.60218 13.25 5.25 13.6022 5.25 14V19C5.25 19.3978 5.60218 19.75 6 19.75C6.39782 19.75 6.75 19.3978 6.75 19V17.25H7.0754L8.357 19.386C8.56522 19.7407 9.03716 19.8611 9.38984 19.6494C9.74251 19.4377 9.85819 18.9646 9.643 18.614L8.65374 16.9652C9.2818 16.6357 9.75 16.036 9.75 15.25C9.75 14.023 8.609 13.25 7.5 13.25H6ZM7.5 15.75C8.048 15.75 8.25 15.404 8.25 15.25C8.25 15.096 8.048 14.75 7.5 14.75H6.75V15.75H7.5Z" fill="currentcolor"/></symbol></defs></svg>