<svg width="24" height="24" viewBox="0 0 24 24" fill="none" xmlns="http://www.w3.org/2000/svg">
<path fill-rule="evenodd" clip-rule="evenodd" d="M12.422 3.07208C12.048 3.42708 11.594 4.00108 10.921 4.85708L10.581 5.29008L10.514 5.37508C10.209 5.76508 9.927 6.12408 9.531 6.33508C9.128 6.55008 8.677 6.57508 8.203 6.60108L8.099 6.60708L7.572 6.63708C6.526 6.69708 5.832 6.74008 5.349 6.84408C4.883 6.94408 4.813 7.06208 4.783 7.12208C4.747 7.19408 4.699 7.34508 4.894 7.81908C5.093 8.30308 5.461 8.92908 6.012 9.86108L6.291 10.3311L6.343 10.4201C6.598 10.8481 6.827 11.2341 6.887 11.6841C6.947 12.1301 6.831 12.5671 6.7 13.0591L6.673 13.1601L6.53 13.7001C6.248 14.7691 6.058 15.4911 5.995 16.0211C5.932 16.5511 6.023 16.6711 6.06 16.7101L6.062 16.7121C6.086 16.7381 6.167 16.8271 6.634 16.7731C7.082 16.7221 7.685 16.5631 8.562 16.3221C8.30729 16.1158 8.0655 15.894 7.838 15.6581C7.498 15.2931 7.176 14.8091 7.265 14.1841C7.355 13.5541 7.804 13.1841 8.235 12.9341C8.649 12.6971 9.225 12.4721 9.886 12.2131L10.307 12.0481C10.52 11.9641 10.637 11.9181 10.723 11.8761C10.7491 11.8647 10.7739 11.8507 10.797 11.8341C10.8128 11.8112 10.8262 11.7867 10.837 11.7611C10.877 11.6751 10.922 11.5561 11.002 11.3431L11.159 10.9191C11.407 10.2541 11.622 9.67608 11.854 9.25908C12.095 8.82408 12.458 8.36908 13.086 8.26908C13.709 8.16908 14.198 8.48108 14.571 8.81308C14.929 9.13408 15.329 9.61208 15.791 10.1641L16.082 10.5141C16.23 10.6901 16.314 10.7901 16.382 10.8591C16.404 10.8808 16.4271 10.9015 16.451 10.9211L16.454 10.9231L16.456 10.9241L16.466 10.9271L16.546 10.9421C16.6966 10.958 16.8477 10.969 16.999 10.9751L17.452 10.9991L18.067 11.0341C18.537 10.6211 18.85 10.3171 19.045 10.0621C19.255 9.78808 19.257 9.66508 19.247 9.59308C19.237 9.52108 19.206 9.38508 18.797 9.13508C18.372 8.87508 17.729 8.60508 16.76 8.20308L16.271 7.99908L16.176 7.95908C15.735 7.77708 15.318 7.60508 15.008 7.27008C14.703 6.94108 14.553 6.51008 14.389 6.04008L14.353 5.93808L14.17 5.41608C13.808 4.38408 13.563 3.69008 13.323 3.22908C13.087 2.77708 12.96 2.75708 12.936 2.75308H12.933C12.911 2.74808 12.788 2.72508 12.423 3.07208M19.893 11.3741C20.0146 11.2469 20.1295 11.1134 20.237 10.9741C20.581 10.5251 20.817 10.0081 20.735 9.39408C20.637 8.66108 20.143 8.19908 19.58 7.85508C19.044 7.52808 18.29 7.21508 17.396 6.84208L16.849 6.61408C16.251 6.36508 16.169 6.31408 16.109 6.25108C16.045 6.18108 15.993 6.07808 15.769 5.44108L15.567 4.86108C15.23 3.90208 14.95 3.10408 14.654 2.53608C14.352 1.95808 13.924 1.40008 13.188 1.27408C12.448 1.14808 11.862 1.53608 11.391 1.98408C10.927 2.42408 10.406 3.08608 9.781 3.88108L9.403 4.36208C8.987 4.89108 8.906 4.96908 8.826 5.01208C8.752 5.05208 8.66 5.07208 8.014 5.10908L7.487 5.13908L7.423 5.14308C6.458 5.19908 5.645 5.24608 5.033 5.37808C4.39 5.51708 3.77 5.79108 3.441 6.45508C3.117 7.10708 3.254 7.77308 3.508 8.39008C3.753 8.98608 4.179 9.70708 4.692 10.5731L5.001 11.0951C5.338 11.6651 5.387 11.7751 5.401 11.8831C5.416 11.9961 5.396 12.1231 5.224 12.7771L5.066 13.3751C4.802 14.3711 4.584 15.1951 4.506 15.8421C4.427 16.5021 4.464 17.1921 4.961 17.7291C5.472 18.2821 6.161 18.3391 6.807 18.2641C7.427 18.1921 8.217 17.9741 9.154 17.7141L9.282 17.6791L9.88 17.3891L9.923 17.4281C9.94502 17.4494 9.96604 17.4718 9.986 17.4951L9.987 17.4971L9.988 17.5001L9.992 17.5101C9.99533 17.5207 10.0007 17.5464 10.008 17.5871C10.0262 17.7369 10.0395 17.8874 10.048 18.0381L10.081 18.4911C10.133 19.2031 10.178 19.8211 10.282 20.2881C10.392 20.7781 10.61 21.3111 11.172 21.5941C11.736 21.8771 12.294 21.7301 12.75 21.5221C13.184 21.3241 13.7 20.9871 14.295 20.6001L14.673 20.3541C14.797 20.27 14.9241 20.1906 15.054 20.1161L15.124 20.0831L15.132 20.0801H15.145C15.1557 20.0794 15.182 20.0827 15.224 20.0901C15.319 20.1061 15.444 20.1381 15.667 20.1961L16.107 20.3111C16.802 20.4911 17.404 20.6481 17.88 20.7001C18.375 20.7541 18.958 20.7221 19.403 20.2701C19.849 19.8171 19.871 19.2331 19.808 18.7401C19.748 18.2641 19.579 17.6671 19.386 16.9771L19.263 16.5401C19.2199 16.3947 19.1816 16.248 19.148 16.1001L19.136 16.0221V16.0121L19.139 16.0031L19.171 15.9331C19.214 15.8501 19.281 15.7431 19.402 15.5501L19.642 15.1681C20.02 14.5681 20.348 14.0471 20.538 13.6091C20.738 13.1511 20.876 12.5891 20.581 12.0301C20.4289 11.7426 20.1874 11.5124 19.893 11.3741ZM13.303 9.74908L13.314 9.75108C13.3073 9.75108 13.3037 9.75041 13.303 9.74908ZM13.327 9.75608C13.4171 9.80202 13.4997 9.86136 13.572 9.93208C13.839 10.1701 14.168 10.5611 14.677 11.1701L14.933 11.4761L14.987 11.5411C15.21 11.8091 15.447 12.0961 15.781 12.2631C16.116 12.4311 16.487 12.4501 16.834 12.4681L16.919 12.4731L17.314 12.4931C18.104 12.5371 18.61 12.5661 18.959 12.6371C19.0606 12.6532 19.1591 12.6849 19.251 12.7311V12.7351C19.2353 12.8301 19.206 12.9224 19.164 13.0091C19.024 13.3301 18.759 13.7551 18.341 14.4191L18.132 14.7521L18.087 14.8231C17.904 15.1131 17.704 15.4291 17.651 15.8001C17.598 16.1701 17.701 16.5301 17.795 16.8631L17.819 16.9451L17.926 17.3271C18.14 18.0891 18.276 18.5781 18.32 18.9291C18.34 19.0891 18.335 19.1731 18.328 19.2121C18.233 19.2248 18.1367 19.2238 18.042 19.2091C17.689 19.1701 17.196 19.0441 16.429 18.8451L16.044 18.7451L15.962 18.7231C15.626 18.6351 15.265 18.5391 14.896 18.5981C14.526 18.6581 14.213 18.8621 13.926 19.0511L13.855 19.0971L13.525 19.3111C12.868 19.7401 12.446 20.0111 12.127 20.1581C12.0403 20.2019 11.9477 20.2329 11.852 20.2501H11.846L11.841 20.2421C11.7956 20.154 11.7636 20.0596 11.746 19.9621C11.669 19.6151 11.631 19.1111 11.573 18.3241L11.545 17.9301L11.539 17.8451C11.515 17.5001 11.489 17.1291 11.314 16.7981C11.14 16.4681 10.848 16.2351 10.576 16.0181L10.509 15.9651L10.199 15.7151C9.579 15.2191 9.181 14.8981 8.937 14.6351C8.86552 14.5655 8.80484 14.4856 8.757 14.3981C8.82497 14.3333 8.90173 14.2784 8.985 14.2351C9.289 14.0601 9.756 13.8751 10.489 13.5881L10.855 13.4441L10.935 13.4141C11.255 13.2891 11.605 13.1541 11.867 12.8871C12.13 12.6191 12.26 12.2671 12.379 11.9471L12.409 11.8671L12.546 11.4981C12.82 10.7621 12.996 10.2931 13.166 9.98708C13.2085 9.90287 13.2627 9.8251 13.327 9.75608ZM8.75 14.3721L8.752 14.3841C8.74933 14.3761 8.74867 14.3721 8.75 14.3721ZM8.748 14.4091L8.742 14.4211C8.74067 14.4211 8.74267 14.4171 8.748 14.4091ZM18.319 19.2411L18.324 19.2301C18.322 19.2381 18.3203 19.2424 18.319 19.2411ZM13.337 9.74608C13.345 9.74074 13.349 9.73874 13.349 9.74008L13.337 9.74608Z" fill="white"/>
</svg>
