<svg width="24" height="24" viewBox="0 0 24 24" fill="none" xmlns="http://www.w3.org/2000/svg">
<path d="M19.75 12.75C20.717 8.866 21.146 6.847 20.134 5.428C20.0664 5.33325 19.9947 5.24149 19.919 5.153C18.722 3.75 16.481 3.75 12 3.75C7.51904 3.75 5.28004 3.75 4.08204 5.153C4.00604 5.24167 3.93437 5.33333 3.86704 5.428C2.85504 6.848 3.28404 8.866 4.25104 12.75H19.75ZM4.75004 17.75V19.75C4.75004 19.9489 4.67102 20.1397 4.53037 20.2803C4.38972 20.421 4.19895 20.5 4.00004 20.5C3.80113 20.5 3.61036 20.421 3.46971 20.2803C3.32906 20.1397 3.25004 19.9489 3.25004 19.75V17.605C2.81916 17.4313 2.46218 17.1131 2.24037 16.7049C2.01857 16.2967 1.94578 15.8241 2.03449 15.3681C2.12321 14.912 2.3679 14.5011 2.72657 14.2059C3.08523 13.9106 3.53548 13.7495 4.00004 13.75H20C20.4646 13.7495 20.9149 13.9106 21.2735 14.2059C21.6322 14.5011 21.8769 14.912 21.9656 15.3681C22.0543 15.8241 21.9815 16.2967 21.7597 16.7049C21.5379 17.1131 21.1809 17.4313 20.75 17.605V19.75C20.75 19.9489 20.671 20.1397 20.5304 20.2803C20.3897 20.421 20.199 20.5 20 20.5C19.8011 20.5 19.6104 20.421 19.4697 20.2803C19.3291 20.1397 19.25 19.9489 19.25 19.75V17.75H4.75004Z" fill="black"/>
</svg>
