<svg width="72" height="72" viewBox="0 0 72 72" fill="none" xmlns="http://www.w3.org/2000/svg">
<path d="M70.2 15.8432L36.45 1.21819C36.3092 1.15641 36.1571 1.12451 36.0034 1.12451C35.8496 1.12451 35.6975 1.15641 35.5568 1.21819L1.80675 15.8432C1.60478 15.9298 1.43258 16.0736 1.31143 16.2569C1.19027 16.4403 1.12546 16.6551 1.125 16.8748V55.1248C1.12489 55.3438 1.18871 55.5581 1.30861 55.7413C1.42851 55.9246 1.59929 56.0688 1.8 56.1564L35.55 70.7814C35.6908 70.843 35.8429 70.8748 35.9966 70.8748C36.1503 70.8748 36.3024 70.843 36.4433 70.7814L70.1933 56.1564C70.3952 56.0699 70.5674 55.926 70.6886 55.7427C70.8097 55.5594 70.8745 55.3446 70.875 55.1248V16.8748C70.8751 16.6558 70.8113 16.4416 70.6914 16.2583C70.5715 16.0751 70.4007 15.9308 70.2 15.8432ZM3.375 18.5882L16.875 24.4382V47.5614L3.375 53.4114V18.5882ZM51.75 46.0978C51.7388 42.6462 50.595 39.2936 48.4942 36.5548C46.3934 33.8161 43.4517 31.8426 40.1209 30.9373L52.875 25.4136V46.5861L51.75 46.0978ZM36 59.6248C33.33 59.6248 30.7199 58.8331 28.4998 57.3497C26.2797 55.8663 24.5494 53.7578 23.5276 51.291C22.5058 48.8242 22.2385 46.1098 22.7594 43.4911C23.2803 40.8724 24.566 38.4669 26.4541 36.5789C28.3421 34.6909 30.7475 33.4051 33.3663 32.8842C35.985 32.3633 38.6994 32.6307 41.1662 33.6524C43.633 34.6742 45.7414 36.4046 47.2248 38.6246C48.7082 40.8447 49.5 43.4548 49.5 46.1248C49.4961 49.7041 48.0726 53.1356 45.5417 55.6665C43.0108 58.1974 39.5792 59.6209 36 59.6248ZM37.125 29.7864V17.4699L51.2685 23.6574L37.125 29.7864ZM34.875 29.7864L20.7315 23.6574L34.875 17.4699V29.7864ZM31.8791 30.9373C28.5483 31.8426 25.6066 33.8161 23.5058 36.5548C21.405 39.2936 20.2612 42.6462 20.25 46.0978L19.125 46.5861V25.4136L31.8791 30.9373ZM20.4435 48.4671C20.9784 51.9992 22.6981 55.2445 25.3205 57.6704C27.9429 60.0963 31.312 61.5587 34.875 61.8174V68.0364L5.07937 55.1248L20.4435 48.4671ZM37.125 61.8174C40.688 61.5587 44.0571 60.0963 46.6795 57.6704C49.3019 55.2445 51.0216 51.9992 51.5565 48.4671L66.9206 55.1248L37.125 68.0364V61.8174ZM55.125 47.5614V24.4382L68.625 18.5882V53.4114L55.125 47.5614ZM54.0877 22.4357L37.125 15.0141V3.96319L66.9206 16.8748L54.0877 22.4357ZM34.875 3.96319V15.0141L17.9123 22.4391L5.07937 16.8748L34.875 3.96319Z" fill="black"/>
<path d="M30.753 43.9627L34.5454 40.1704C34.7027 40.013 34.8098 39.8126 34.8532 39.5944C34.8965 39.3762 34.8743 39.15 34.7891 38.9445C34.704 38.739 34.5599 38.5633 34.3749 38.4397C34.1899 38.3161 33.9725 38.25 33.75 38.25H25.875V40.5H31.0343L27.3296 44.2046C27.1723 44.362 27.0652 44.5624 27.0218 44.7806C26.9785 44.9988 27.0007 45.225 27.0859 45.4305C27.171 45.636 27.3151 45.8117 27.5001 45.9353C27.6851 46.0589 27.9025 46.125 28.125 46.125H29.8125C30.3688 46.125 30.9125 46.29 31.375 46.599C31.8376 46.908 32.198 47.3473 32.4109 47.8612C32.6238 48.3751 32.6795 48.9406 32.571 49.4862C32.4624 50.0318 32.1946 50.5329 31.8012 50.9262C31.4079 51.3196 30.9068 51.5874 30.3612 51.696C29.8156 51.8045 29.2501 51.7488 28.7362 51.5359C28.2223 51.323 27.783 50.9626 27.474 50.5C27.1649 50.0375 27 49.4938 27 48.9375V48.375H24.75V48.9375C24.7501 49.8985 25.0237 50.8396 25.5388 51.6509C26.054 52.4622 26.7894 53.11 27.6591 53.5188C28.5289 53.9276 29.497 54.0804 30.4503 53.9593C31.4037 53.8382 32.3028 53.4483 33.0428 52.8351C33.7827 52.2219 34.3329 51.4108 34.6289 50.4965C34.9249 49.5822 34.9545 48.6025 34.7144 47.672C34.4742 46.7415 33.9742 45.8986 33.2727 45.2417C32.5712 44.5849 31.6973 44.1413 30.753 43.9627Z" fill="black"/>
<path d="M47.25 48.375V43.875C47.2482 42.3837 46.655 40.954 45.6005 39.8995C44.546 38.845 43.1163 38.2518 41.625 38.25H37.125C36.8266 38.25 36.5405 38.3685 36.3295 38.5795C36.1185 38.7905 36 39.0766 36 39.375V52.875C36 53.1734 36.1185 53.4595 36.3295 53.6705C36.5405 53.8815 36.8266 54 37.125 54H41.625C43.1163 53.9982 44.546 53.405 45.6005 52.3505C46.655 51.296 47.2482 49.8663 47.25 48.375ZM45 48.375C45 49.2701 44.6444 50.1285 44.0115 50.7615C43.3785 51.3944 42.5201 51.75 41.625 51.75H38.25V40.5H41.625C42.5201 40.5 43.3785 40.8556 44.0115 41.4885C44.6444 42.1215 45 42.9799 45 43.875V48.375Z" fill="black"/>
</svg>
