<svg width="72" height="72" viewBox="0 0 72 72" fill="none" xmlns="http://www.w3.org/2000/svg">
<path d="M68.6953 63.5625C68.6953 61.8178 67.276 60.3984 65.5312 60.3984H63.7258C61.6926 58.9971 60.9522 55.2078 62.0158 51.6413C64.8456 49.9236 66.5861 46.852 66.5861 43.5236C66.5861 38.6461 62.8879 34.6179 58.1486 34.0914V4.21875H53.9298V0H3.30483V6.32812H5.4142V2.10938H51.8205V4.21875H7.52344V65.6719H5.41406V8.4375H3.30469V67.7812H7.52344V72H56.0391V69.8906H49.7109V67.7812H64.4766V69.8906H58.1484V72H66.5859V67.7812H68.6953V63.5625ZM47.6016 69.8906H9.63281V6.32812H56.0391V34.0914C51.2997 34.6179 47.6016 38.6463 47.6016 43.5236C47.6016 46.8522 49.3419 49.9236 52.1719 51.6413C53.2353 55.2078 52.4949 58.9971 50.4619 60.3984H48.6562C46.9115 60.3984 45.4922 61.8178 45.4922 63.5625V67.7812H47.6016V69.8906ZM66.5859 65.6719H47.6016V63.5625C47.6016 62.9809 48.0746 62.5078 48.6562 62.5078H51.0483L51.293 62.3665C52.9079 61.4341 54.0571 59.6476 54.5289 57.336C54.9644 55.2022 54.7955 52.8089 54.0534 50.5969L53.922 50.2051L53.5593 50.0068C51.1855 48.7097 49.7109 46.2254 49.7109 43.5234C49.7109 39.4525 53.0228 36.1406 57.0938 36.1406C61.1647 36.1406 64.4766 39.4525 64.4766 43.5234C64.4766 46.2253 63.002 48.7095 60.6282 50.0068L60.2655 50.2051L60.1341 50.5969C59.392 52.8088 59.223 55.2022 59.6586 57.336C60.1303 59.6476 61.2796 61.4341 62.8945 62.3665L63.1392 62.5078H65.5312C66.1129 62.5078 66.5859 62.9809 66.5859 63.5625V65.6719Z" fill="black"/>
<path d="M61.3125 43.5234C61.3125 41.1972 59.42 39.3047 57.0938 39.3047C54.7675 39.3047 52.875 41.1972 52.875 43.5234C52.875 45.8497 54.7675 47.7422 57.0938 47.7422C59.42 47.7422 61.3125 45.8497 61.3125 43.5234ZM54.9844 43.5234C54.9844 42.3603 55.9306 41.4141 57.0938 41.4141C58.2569 41.4141 59.2031 42.3603 59.2031 43.5234C59.2031 44.6865 58.2569 45.6328 57.0938 45.6328C55.9306 45.6328 54.9844 44.6865 54.9844 43.5234Z" fill="black"/>
<path d="M55.5117 60.3984H58.6758V62.5078H55.5117V60.3984Z" fill="black"/>
<path d="M32.8359 13.3242C25.2757 13.3242 19.125 19.4749 19.125 27.0352C19.125 34.5954 25.2757 40.7461 32.8359 40.7461C40.3962 40.7461 46.5469 34.5954 46.5469 27.0352C46.5469 19.4749 40.3962 13.3242 32.8359 13.3242ZM32.8359 38.6367C26.4388 38.6367 21.2344 33.4323 21.2344 27.0352C21.2344 20.638 26.4388 15.4336 32.8359 15.4336C39.2331 15.4336 44.4375 20.638 44.4375 27.0352C44.4375 33.4323 39.2331 38.6367 32.8359 38.6367Z" fill="black"/>
<path d="M35.0733 22.1874L32.0902 25.1705L30.5986 23.679C30.0026 23.0831 29.2081 22.7549 28.3614 22.7549C27.5147 22.7549 26.72 23.0831 26.124 23.679C24.8905 24.9126 24.8903 26.92 26.1239 28.1537L29.8528 31.8825C30.4488 32.4785 31.2433 32.8067 32.0902 32.8067C32.937 32.8067 33.7316 32.4785 34.3275 31.8825L39.5481 26.6621C40.7817 25.4286 40.7817 23.4211 39.5481 22.1874C38.3141 20.9537 36.3068 20.9539 35.0733 22.1874ZM38.0563 25.1706L32.8358 30.3911C32.6382 30.5886 32.3734 30.6975 32.09 30.6975C31.8067 30.6975 31.5419 30.5886 31.3443 30.3911L27.6154 26.6623C27.2042 26.2511 27.2042 25.5818 27.6154 25.1706C27.8129 24.9731 28.0777 24.8644 28.3611 24.8644C28.6445 24.8644 28.9093 24.9732 29.1068 25.1706L32.0899 28.1537L36.5645 23.679C36.9758 23.2679 37.6449 23.2679 38.0559 23.679C38.4675 24.0902 38.4675 24.7593 38.0563 25.1706Z" fill="black"/>
<path d="M24.3984 60.7852H41.2734V62.8945H24.3984V60.7852Z" fill="black"/>
<path d="M24.3984 55.5117H41.2734V57.6211H24.3984V55.5117Z" fill="black"/>
<path d="M24.3984 50.2383H41.2734V52.3477H24.3984V50.2383Z" fill="black"/>
<path d="M24.3984 44.9648H41.2734V47.0742H24.3984V44.9648Z" fill="black"/>
<path d="M51.8203 8.4375H53.9297V10.5469H51.8203V8.4375Z" fill="black"/>
<path d="M51.8203 12.6562H53.9297V14.7656H51.8203V12.6562Z" fill="black"/>
</svg>
