<svg width="72" height="72" viewBox="0 0 72 72" fill="none" xmlns="http://www.w3.org/2000/svg">
<g clip-path="url(#clip0_75_569)">
<path d="M67.8953 47.3966V43.5253C67.8953 39.9153 64.9584 36.9785 61.3485 36.9785H36.2754C35.6918 36.9785 35.2186 37.4516 35.2186 38.0353C35.2186 38.619 35.6918 39.0921 36.2754 39.0921H61.3485C63.7931 39.0921 65.7819 41.0808 65.7819 43.5255V47.3967C63.4409 47.8857 61.677 49.9651 61.677 52.449V56.3737H27.912V52.449C27.912 49.965 26.1481 47.8857 23.8073 47.3967V43.5255C23.8073 41.0808 25.7961 39.0921 28.2406 39.0921H32.0484C32.632 39.0921 33.1052 38.619 33.1052 38.0353C33.1052 37.4516 32.632 36.9785 32.0484 36.9785H28.2406C24.6306 36.9785 21.6938 39.9155 21.6938 43.5253V47.3966C19.353 47.8855 17.589 49.965 17.589 52.4488V67.4995C17.589 68.0832 18.062 68.5563 18.6458 68.5563H51.2401C51.8238 68.5563 52.2969 68.0832 52.2969 67.4995C52.2969 66.9157 51.8238 66.4427 51.2401 66.4427H27.912V58.487H61.677V66.4427H55.467C54.8833 66.4427 54.4102 66.9157 54.4102 67.4995C54.4102 68.0832 54.8833 68.5563 55.467 68.5563H70.9433C71.5271 68.5563 72.0001 68.0832 72.0001 67.4995V52.449C72 49.965 70.2361 47.8857 67.8953 47.3966ZM19.7024 52.449C19.7024 50.7683 21.0697 49.401 22.7505 49.401C24.4312 49.401 25.7985 50.7683 25.7985 52.449V66.4428H19.7024V52.449ZM69.8866 66.4428H63.7905V52.449C63.7905 50.7683 65.1578 49.401 66.8385 49.401C68.5191 49.401 69.8864 50.7683 69.8864 52.449V66.4428H69.8866Z" fill="black"/>
<path d="M26.9269 29.4373C26.9785 29.9699 27.4427 30.3908 27.9785 30.3908H61.6105C62.1852 30.3908 62.6673 29.9089 62.6673 29.334V4.50064C62.6673 3.92577 62.1854 3.44385 61.6105 3.44385H55.467C54.8833 3.44385 54.4102 3.91691 54.4102 4.50064C54.4102 5.08438 54.8833 5.55744 55.467 5.55744H59.0593L57.1029 7.51382H32.4859L30.5296 5.55744H51.2398C51.8236 5.55744 52.2966 5.08438 52.2966 4.50064C52.2966 3.91691 51.8236 3.44385 51.2398 3.44385H27.9783C27.403 3.44385 26.9215 3.92647 26.9215 4.50064V29.334C26.9217 29.3681 26.9235 29.4034 26.9269 29.4373ZM30.5296 28.2774L32.4859 26.3209H57.1028L59.0591 28.2774H30.5296ZM56.4839 24.2073H46.8826L45.1209 22.2506L50.834 15.9048C51.1736 15.5272 51.7777 15.5327 52.1161 15.9084L56.4839 20.7133V24.2073ZM44.0386 24.2073H33.1051V23.4365L37.7298 18.2995C37.9914 18.0089 38.4584 18.0088 38.7198 18.2995L44.0386 24.2073ZM60.5537 7.052V26.7827L58.5973 24.8263V9.00838L60.5537 7.052ZM56.4839 17.5713L53.6835 14.4906C52.5198 13.1982 50.4269 13.1982 49.2632 14.4906L43.6989 20.6711L40.2906 16.8853C39.7644 16.3008 39.0115 15.9655 38.225 15.9655C37.4435 15.9655 36.6819 16.3047 36.1591 16.8853L33.1051 20.2776V9.62727H56.4839V17.5713ZM30.9915 9.00838V24.8264L29.0351 26.7828V7.052L30.9915 9.00838Z" fill="black"/>
<path d="M11.9099 62.6349H10.8731V26.0613H13.5875V38.0182C13.5875 38.602 14.0607 39.075 14.6442 39.075C15.2278 39.075 15.701 38.602 15.701 38.0182V26.0613H18.5764C19.2442 26.0613 19.7555 25.4205 19.6066 24.769L15.9009 8.55953C15.791 8.07902 15.3635 7.73828 14.8707 7.73828H4.76197C4.26908 7.73828 3.84158 8.07902 3.73175 8.55953L0.0259972 24.769C-0.122925 25.4205 0.388388 26.0613 1.05622 26.0613H8.75965V62.6348H7.72283C5.12787 62.6348 3.01681 64.7458 3.01681 67.3406V67.4994C3.01681 68.0831 3.49001 68.5562 4.07361 68.5562H15.5592C16.1427 68.5562 16.6159 68.0831 16.6159 67.4994V67.3406C16.6158 64.746 14.5047 62.6349 11.9099 62.6349ZM5.60445 9.85187H14.0283L17.2509 23.9478H2.38175L5.60445 9.85187ZM5.29058 66.4427C5.65662 65.4546 6.60865 64.7484 7.72268 64.7484H11.9098C13.0238 64.7484 13.9759 65.4544 14.3419 66.4427H5.29058Z" fill="black"/>
<path d="M43.699 16.7492C45.3445 16.7492 46.6832 15.4104 46.6832 13.765C46.6832 12.1194 45.3444 10.7808 43.699 10.7808C42.0534 10.7808 40.7148 12.1195 40.7148 13.765C40.7148 15.4104 42.0534 16.7492 43.699 16.7492ZM43.699 12.8942C44.179 12.8942 44.5697 13.2849 44.5697 13.765C44.5697 14.2451 44.179 14.6357 43.699 14.6357C43.2189 14.6357 42.8282 14.2451 42.8282 13.765C42.8282 13.2847 43.2189 12.8942 43.699 12.8942Z" fill="black"/>
</g>
<defs>
<clipPath id="clip0_75_569">
<rect width="72" height="72" fill="white"/>
</clipPath>
</defs>
</svg>
