<svg width="72" height="72" viewBox="0 0 72 72" fill="none" xmlns="http://www.w3.org/2000/svg">
<g clip-path="url(#clip0_75_557)">
<path d="M60.7999 10.1454H58.4728V7.81833C58.4728 6.61514 57.4941 5.63639 56.2909 5.63639H42.418C42.0455 4.96505 41.3298 4.50914 40.5091 4.50914H24.5533C24.0588 1.944 21.7983 0 19.091 0C16.3838 0 14.1231 1.944 13.6288 4.509H11.2001C9.99688 4.509 9.01813 5.48775 9.01813 6.69094V36C9.01813 36.8207 9.47403 37.5363 10.1454 37.9088V65.3091C10.1454 66.5123 11.1241 67.491 12.3273 67.491H14.6544V69.8181C14.6544 71.0212 15.6331 72.0001 16.8363 72.0001H60.7998C62.003 72.0001 62.9817 71.0212 62.9817 69.8181V12.3273C62.9818 11.1241 62.0031 10.1454 60.7999 10.1454ZM11.1275 6.69108C11.1275 6.651 11.16 6.61852 11.2001 6.61852H13.5271V16.8366C13.5271 19.9045 16.0231 22.4003 19.091 22.4003C22.1588 22.4003 24.6546 19.9043 24.6546 16.8365V12.3273C24.6546 10.5026 23.1701 9.01814 21.3455 9.01814C19.5208 9.01814 18.0363 10.5027 18.0363 12.3273V14.5818C18.0363 15.1643 18.5085 15.6365 19.091 15.6365C19.6734 15.6365 20.1456 15.1643 20.1456 14.5818V12.3273C20.1456 11.6657 20.684 11.1275 21.3455 11.1275C22.007 11.1275 22.5453 11.6658 22.5453 12.3273V16.8363C22.5453 18.7411 20.9956 20.2908 19.0908 20.2908C17.1861 20.2908 15.6365 18.7411 15.6365 16.8365V5.56791C15.6365 5.5665 15.6366 5.56523 15.6366 5.56383C15.6366 5.56284 15.6365 5.562 15.6365 5.56116C15.638 3.65752 17.187 2.10938 19.091 2.10938C20.628 2.10938 21.9331 3.11864 22.38 4.509H19.0904C18.5079 4.509 18.0357 4.98122 18.0357 5.56369C18.0357 6.14616 18.5079 6.61837 19.0904 6.61837H40.509C40.5491 6.61837 40.5815 6.65086 40.5815 6.69094V36C40.5815 36.0401 40.5491 36.0726 40.509 36.0726H11.2001C11.16 36.0726 11.1275 36.0401 11.1275 36V6.69108ZM60.8725 69.8179C60.8725 69.858 60.84 69.8906 60.7999 69.8906H16.8365C16.7964 69.8906 16.7639 69.8581 16.7639 69.8179V67.4909H46.339C47.223 67.4909 48.0541 67.1466 48.679 66.5215L57.5037 57.6972C58.1287 57.0721 58.473 56.2411 58.473 55.3572V17.9639C58.473 17.3814 58.0008 16.9092 57.4183 16.9092C56.8358 16.9092 56.3636 17.3814 56.3636 17.9639V55.2362H48.4002C47.197 55.2362 46.2182 56.215 46.2182 57.4182V65.3816H12.3276C12.2875 65.3816 12.255 65.3491 12.255 65.3091V38.1819H40.5093C41.7125 38.1819 42.6912 37.2032 42.6912 36V7.74577H56.291C56.3311 7.74577 56.3636 7.77825 56.3636 7.81833V13.4547C56.3636 14.0372 56.8358 14.5094 57.4183 14.5094C58.0008 14.5094 58.473 14.0372 58.473 13.4547V12.2548H60.8C60.8401 12.2548 60.8726 12.2873 60.8726 12.3273V69.8179H60.8725ZM48.3273 63.8902V57.4182C48.3273 57.3781 48.3598 57.3456 48.3999 57.3456H54.8721L48.3273 63.8902Z" fill="black"/>
<path d="M29.2364 16.7637H34.8727C35.4552 16.7637 35.9274 16.2915 35.9274 15.709C35.9274 15.1265 35.4552 14.6543 34.8727 14.6543H29.2364C28.6539 14.6543 28.1817 15.1265 28.1817 15.709C28.1817 16.2915 28.6539 16.7637 29.2364 16.7637Z" fill="black"/>
<path d="M29.2364 22.4004H34.8727C35.4552 22.4004 35.9274 21.9282 35.9274 21.3457C35.9274 20.7632 35.4552 20.291 34.8727 20.291H29.2364C28.6539 20.291 28.1817 20.7632 28.1817 21.3457C28.1817 21.9282 28.6539 22.4004 29.2364 22.4004Z" fill="black"/>
<path d="M16.8365 28.0366H34.8727C35.4552 28.0366 35.9274 27.5644 35.9274 26.9819C35.9274 26.3995 35.4552 25.9272 34.8727 25.9272H16.8365C16.254 25.9272 15.7818 26.3995 15.7818 26.9819C15.7818 27.5644 16.2538 28.0366 16.8365 28.0366Z" fill="black"/>
<path d="M50.6544 25.9272H48.3999C47.8174 25.9272 47.3452 26.3995 47.3452 26.9819C47.3452 27.5644 47.8174 28.0366 48.3999 28.0366H50.6544C51.2368 28.0366 51.7091 27.5644 51.7091 26.9819C51.7091 26.3995 51.237 25.9272 50.6544 25.9272Z" fill="black"/>
<path d="M50.6544 14.6543H48.3999C47.8174 14.6543 47.3452 15.1265 47.3452 15.709C47.3452 16.2915 47.8174 16.7637 48.3999 16.7637H50.6544C51.2368 16.7637 51.7091 16.2915 51.7091 15.709C51.7091 15.1265 51.237 14.6543 50.6544 14.6543Z" fill="black"/>
<path d="M50.6544 20.291H48.3999C47.8174 20.291 47.3452 20.7632 47.3452 21.3457C47.3452 21.9282 47.8174 22.4004 48.3999 22.4004H50.6544C51.2368 22.4004 51.7091 21.9282 51.7091 21.3457C51.7091 20.7632 51.237 20.291 50.6544 20.291Z" fill="black"/>
<path d="M50.6544 31.5635H48.3999C47.8174 31.5635 47.3452 32.0357 47.3452 32.6182C47.3452 33.2006 47.8174 33.6729 48.3999 33.6729H50.6544C51.2368 33.6729 51.7091 33.2006 51.7091 32.6182C51.7091 32.0357 51.237 31.5635 50.6544 31.5635Z" fill="black"/>
<path d="M20.2182 41.709H17.9636C17.3811 41.709 16.9089 42.1812 16.9089 42.7637C16.9089 43.3461 17.3811 43.8184 17.9636 43.8184H20.2182C20.8007 43.8184 21.2729 43.3461 21.2729 42.7637C21.2729 42.1812 20.8008 41.709 20.2182 41.709Z" fill="black"/>
<path d="M20.2182 52.9814H17.9636C17.3811 52.9814 16.9089 53.4537 16.9089 54.0361C16.9089 54.6186 17.3811 55.0908 17.9636 55.0908H20.2182C20.8007 55.0908 21.2729 54.6186 21.2729 54.0361C21.2729 53.4537 20.8008 52.9814 20.2182 52.9814Z" fill="black"/>
<path d="M20.2182 47.3452H17.9636C17.3811 47.3452 16.9089 47.8174 16.9089 48.3999C16.9089 48.9824 17.3811 49.4546 17.9636 49.4546H20.2182C20.8007 49.4546 21.2729 48.9824 21.2729 48.3999C21.2729 47.8174 20.8008 47.3452 20.2182 47.3452Z" fill="black"/>
<path d="M50.6544 41.709H25.8546C25.2721 41.709 24.7999 42.1812 24.7999 42.7637C24.7999 43.3461 25.2721 43.8184 25.8546 43.8184H50.6544C51.2368 43.8184 51.7091 43.3461 51.7091 42.7637C51.7091 42.1812 51.237 41.709 50.6544 41.709Z" fill="black"/>
<path d="M41.6364 52.9814H25.8546C25.2721 52.9814 24.7999 53.4537 24.7999 54.0361C24.7999 54.6186 25.2721 55.0908 25.8546 55.0908H41.6364C42.2188 55.0908 42.6911 54.6186 42.6911 54.0361C42.6911 53.4537 42.2188 52.9814 41.6364 52.9814Z" fill="black"/>
<path d="M50.6544 47.3452H25.8546C25.2721 47.3452 24.7999 47.8174 24.7999 48.3999C24.7999 48.9824 25.2721 49.4546 25.8546 49.4546H50.6544C51.2368 49.4546 51.7091 48.9824 51.7091 48.3999C51.7091 47.8174 51.237 47.3452 50.6544 47.3452Z" fill="black"/>
</g>
<defs>
<clipPath id="clip0_75_557">
<rect width="72" height="72" fill="white"/>
</clipPath>
</defs>
</svg>
