<svg width="72" height="72" viewBox="0 0 72 72" fill="none" xmlns="http://www.w3.org/2000/svg">
<g clip-path="url(#clip0_75_575)">
<path d="M70.8387 16.2581H44.129V1.16129C44.129 0.520539 43.6085 0 42.9677 0H1.16129C0.520539 0 0 0.520539 0 1.16129V54.5806C0 55.2214 0.520539 55.7419 1.16129 55.7419H25.5484V56.9032C25.5484 57.544 26.0689 58.0645 26.7097 58.0645H27.871V60.3871H26.7097C26.0689 60.3871 25.5484 60.9076 25.5484 61.5484V66.1935C25.5484 66.8343 26.0689 67.3548 26.7097 67.3548H27.871V70.8387C27.871 71.4795 28.3915 72 29.0323 72H70.8387C71.4795 72 72 71.4795 72 70.8387V17.4194C72 16.7786 71.4795 16.2581 70.8387 16.2581ZM25.5484 52.2581V53.4194H2.32258V2.32258H41.8065V16.2581H39.4839V5.80645C39.4839 5.1657 38.9633 4.64516 38.3226 4.64516H5.80645C5.1657 4.64516 4.64516 5.1657 4.64516 5.80645V47.6129C4.64516 48.2537 5.1657 48.7742 5.80645 48.7742H27.871V51.0968H26.7097C26.0689 51.0968 25.5484 51.6173 25.5484 52.2581ZM27.871 27.871V25.5484H30.1935V27.871H27.871ZM27.871 17.4194V23.2258H26.7097C26.0689 23.2258 25.5484 23.7463 25.5484 24.3871V29.0323C25.5484 29.673 26.0689 30.1935 26.7097 30.1935H27.871V32.5161H26.7097C26.0689 32.5161 25.5484 33.0367 25.5484 33.6774V38.3226C25.5484 38.9633 26.0689 39.4839 26.7097 39.4839H27.871V41.8065H26.7097C26.0689 41.8065 25.5484 42.327 25.5484 42.9677V46.4516H23.2258V13.9355H37.1613V16.2581H29.0323C28.3915 16.2581 27.871 16.7786 27.871 17.4194ZM27.871 37.1613V34.8387H30.1935V37.1613H27.871ZM27.871 55.7419V53.4194H30.1935V55.7419H27.871ZM29.0323 46.4516H27.871V44.129H30.1935V46.4516H29.0323ZM37.1613 11.6129H23.2258V6.96774H37.1613V11.6129ZM20.9032 11.6129H6.96774V6.96774H20.9032V11.6129ZM6.96774 13.9355H20.9032V46.4516H6.96774V13.9355ZM27.871 62.7097H30.1935V65.0323H27.871V62.7097ZM69.6774 69.6774H30.1935V67.3548H31.3548C31.9956 67.3548 32.5161 66.8343 32.5161 66.1935V61.5484C32.5161 60.9076 31.9956 60.3871 31.3548 60.3871H30.1935V58.0645H31.3548C31.9956 58.0645 32.5161 57.544 32.5161 56.9032V52.2581C32.5161 51.6173 31.9956 51.0968 31.3548 51.0968H30.1935V48.7742H31.3548C31.9956 48.7742 32.5161 48.2537 32.5161 47.6129V42.9677C32.5161 42.327 31.9956 41.8065 31.3548 41.8065H30.1935V39.4839H31.3548C31.9956 39.4839 32.5161 38.9633 32.5161 38.3226V33.6774C32.5161 33.0367 31.9956 32.5161 31.3548 32.5161H30.1935V30.1935H31.3548C31.9956 30.1935 32.5161 29.673 32.5161 29.0323V24.3871C32.5161 23.7463 31.9956 23.2258 31.3548 23.2258H30.1935V18.5806H69.6774V69.6774Z" fill="black"/>
<path d="M36 32.5162H66.1936C66.8343 32.5162 67.3549 31.9957 67.3549 31.3549V22.0646C67.3549 21.4239 66.8343 20.9033 66.1936 20.9033H36C35.3593 20.9033 34.8387 21.4239 34.8387 22.0646V31.3549C34.8387 31.9957 35.3593 32.5162 36 32.5162ZM37.1613 23.2259H65.0323V30.1936H37.1613V23.2259Z" fill="black"/>
<path d="M39.4839 25.5483H62.7097V27.8709H39.4839V25.5483Z" fill="black"/>
<path d="M48.7742 47.1319V38.3224C48.7742 37.6817 48.2537 37.1611 47.6129 37.1611H42.9678C42.327 37.1611 41.8065 37.6817 41.8065 38.3224V47.1319L39.8241 49.1143C39.6058 49.3314 39.4839 49.6274 39.4839 49.9353V66.1934C39.4839 66.8341 40.0044 67.3547 40.6452 67.3547H49.9355C50.5763 67.3547 51.0968 66.8341 51.0968 66.1934V49.9353C51.0968 49.6274 50.9749 49.3314 50.7566 49.1143L48.7742 47.1319ZM43.7888 48.4338C44.0071 48.2166 44.129 47.9206 44.129 47.6127V39.4837H46.4516V47.6127C46.4516 47.9206 46.5735 48.2166 46.7919 48.4338L48.7742 50.4162V53.4192H41.8065V50.4162L43.7888 48.4338ZM48.7742 55.7418V60.3869H41.8065V55.7418H48.7742ZM41.8065 65.0321V62.7095H48.7742V65.0321H41.8065Z" fill="black"/>
<path d="M61.5484 48.7744H54.5807C53.9399 48.7744 53.4194 49.295 53.4194 49.9357V55.7422C53.4194 57.8997 54.9056 59.7035 56.9032 60.2223V65.0325H54.5807V67.3551H61.5484V65.0325H59.2258V60.2223C61.2235 59.7035 62.7097 57.8997 62.7097 55.7422V49.9357C62.7097 49.295 62.1892 48.7744 61.5484 48.7744ZM60.3871 55.7422C60.3871 57.0231 59.3455 58.0647 58.0645 58.0647C56.7836 58.0647 55.742 57.0231 55.742 55.7422V51.097H60.3871V55.7422Z" fill="black"/>
<path d="M9.29034 16.2583H18.5807V18.5809H9.29034V16.2583Z" fill="black"/>
<path d="M9.29034 20.9033H18.5807V23.2259H9.29034V20.9033Z" fill="black"/>
<path d="M9.29034 25.5483H18.5807V27.8709H9.29034V25.5483Z" fill="black"/>
<path d="M9.29034 30.1934H18.5807V32.5159H9.29034V30.1934Z" fill="black"/>
<path d="M9.29034 34.8389H18.5807V37.1614H9.29034V34.8389Z" fill="black"/>
<path d="M9.29034 39.4839H18.5807V41.8065H9.29034V39.4839Z" fill="black"/>
</g>
<defs>
<clipPath id="clip0_75_575">
<rect width="72" height="72" fill="white"/>
</clipPath>
</defs>
</svg>
