<svg width="72" height="72" viewBox="0 0 72 72" fill="none" xmlns="http://www.w3.org/2000/svg">
<path d="M13.1704 33.3074C12.8485 32.9855 12.3651 32.8877 11.9443 33.0635C11.5236 33.2371 11.25 33.648 11.25 34.1028V59.6251C11.25 60.2469 11.7532 60.7501 12.375 60.7501H37.8973C38.3522 60.7501 38.7631 60.4766 38.9366 60.0558C39.1113 59.635 39.0147 59.1516 38.6927 58.8297L13.1704 33.3074ZM13.5 36.8186L20.25 43.5686V58.5001H13.5V36.8186ZM22.5 58.5001V45.8186L35.1815 58.5001H22.5Z" fill="black"/>
<path d="M61.5454 2.57959C61.3345 2.36865 61.0488 2.25 60.75 2.25H21.375C20.7532 2.25 20.25 2.75318 20.25 3.375V27.6592L4.17041 11.5796C3.84851 11.2577 3.36511 11.161 2.94434 11.3357C2.52355 11.5093 2.25 11.9202 2.25 12.375V68.625C2.25 69.2468 2.75318 69.75 3.375 69.75H59.625C60.0798 69.75 60.4907 69.4764 60.6643 69.0557C60.839 68.6349 60.7423 68.1515 60.4204 67.8296L53.3408 60.75H57.375H68.625C69.2468 60.75 69.75 60.2468 69.75 59.625V20.25V11.25C69.75 10.9512 69.6313 10.6655 69.4204 10.4546L61.5454 2.57959ZM4.5 67.5V15.0908L9.65918 20.25L8.20459 21.7046L9.79541 23.2954L11.25 21.8408L13.0342 23.625L11.5796 25.0796L13.1704 26.6704L14.625 25.2158L16.4092 27L14.9546 28.4546L16.5454 30.0454L18 28.5908L19.7842 30.375L18.3296 31.8296L19.9204 33.4204L21.375 31.9658L23.1592 33.75L21.7046 35.2046L23.2954 36.7954L24.75 35.3408L26.5342 37.125L25.0796 38.5796L26.6704 40.1704L28.125 38.7158L29.9092 40.5L28.4546 41.9546L30.0454 43.5454L31.5 42.0908L33.2842 43.875L31.8296 45.3296L33.4204 46.9204L34.875 45.4658L36.6592 47.25L35.2046 48.7046L36.7954 50.2954L38.25 48.8408L40.0342 50.625L38.5796 52.0796L40.1704 53.6704L41.625 52.2158L43.4092 54L41.9546 55.4546L43.5454 57.0454L45 55.5908L46.7842 57.375L45.3296 58.8296L46.9204 60.4204L48.375 58.9658L50.1592 60.75L48.7046 62.2046L50.2954 63.7954L51.75 62.3408L56.9092 67.5H4.5ZM28.125 16.875H32.625V40.0342L28.125 35.5342V16.875ZM28.8204 14.625L30.375 11.5159L31.9296 14.625H28.8204ZM42.7687 37.2524L44.6858 31.5H47.5642L49.4813 37.2524L47.6941 55.1033L44.201 51.6102L42.7687 37.2524ZM47.25 24.75V19.6727L50.4305 24.7621L47.738 29.25H44.512L41.8195 24.7621L45 19.6727V24.75H47.25ZM49.7497 57.1589L51.7445 37.2371C51.7599 37.0789 51.7423 36.9196 51.6918 36.769L49.6056 30.5106L52.7146 25.329C52.9321 24.9664 52.9277 24.5127 52.7036 24.1534L47.0786 15.1534C46.6677 14.4965 45.5823 14.4965 45.1714 15.1534L39.5464 24.1534C39.3223 24.5127 39.3179 24.9664 39.5354 25.329L42.6444 30.5106L40.5582 36.769C40.5077 36.9196 40.4901 37.0789 40.5055 37.2371L41.689 49.0982L34.875 42.2842V15.75C34.875 15.5753 34.8344 15.4028 34.7563 15.2468L31.3813 8.49682C30.999 7.73438 29.751 7.73438 29.3687 8.49682L25.9937 15.2468C25.9156 15.4028 25.875 15.5753 25.875 15.75V33.2842L22.5 29.9092V4.5H60.2842L65.9092 10.125H61.875V7.875H59.625V11.25C59.625 11.8718 60.1282 12.375 60.75 12.375H67.5V19.125H57.375C56.7532 19.125 56.25 19.6282 56.25 20.25V58.5H51.0908L49.7497 57.1589ZM58.5 58.5V21.375H67.5V24.75H65.25V27H67.5V30.375H65.25V32.625H67.5V36H65.25V38.25H67.5V41.625H65.25V43.875H67.5V47.25H65.25V49.5H67.5V52.875H65.25V55.125H67.5V58.5H58.5Z" fill="black"/>
<path d="M6.75 63H9V65.25H6.75V63Z" fill="black"/>
<path d="M11.25 63H13.5V65.25H11.25V63Z" fill="black"/>
<path d="M15.75 63H18V65.25H15.75V63Z" fill="black"/>
</svg>
