<!-- icon666.com - MILLIONS vector ICONS FREE --><svg version="1.1" id="Capa_1" xmlns="http://www.w3.org/2000/svg" xmlns:xlink="http://www.w3.org/1999/xlink" x="0px" y="0px" viewBox="0 0 512 512" style="enable-background:new 0 0 512 512;" xml:space="preserve"><g><g><path d="M343.77,268.051c-14.813-42.379-44.114-78.698-82.511-102.267c-4.722-2.899-10.902-1.42-13.802,3.302 c-2.9,4.723-1.421,10.903,3.302,13.802c34.471,21.159,60.773,53.755,74.063,91.784c1.446,4.136,5.326,6.727,9.473,6.727 c1.098,0,2.216-0.182,3.31-0.565C342.838,279.006,345.597,273.283,343.77,268.051z"></path></g></g><g><g><path d="M159.044,209.667c-67.787,0-122.935,55.144-122.946,122.927c0,0.008-0.001,0.016-0.001,0.024 c0,0.009,0.001,0.018,0.001,0.027c0.017,67.784,55.164,122.925,122.946,122.925c0,0.001,0.002,0.001,0.003,0.001h0.003 c67.796-0.004,122.951-55.161,122.951-122.957C282.001,264.821,226.842,209.667,159.044,209.667z M169.083,435.012v-14.97 c0-5.542-4.494-10.035-10.035-10.035s-10.035,4.493-10.035,10.035v14.971c-48.733-4.739-87.615-43.623-92.356-92.359h14.969 c5.541,0,10.035-4.493,10.035-10.035c0-5.542-4.494-10.035-10.035-10.035h-14.97c5.059-52.037,49.044-92.847,102.387-92.847 c56.732,0,102.888,46.15,102.888,102.877C261.93,385.961,221.12,429.949,169.083,435.012z"></path></g></g><g><g><path d="M206.668,322.58h-37.581v-58.945c0-5.542-4.494-10.035-10.035-10.035s-10.035,4.493-10.035,10.035v68.98 c0,5.542,4.494,10.035,10.035,10.035h47.615c5.541,0,10.035-4.493,10.035-10.035C216.703,327.072,212.209,322.58,206.668,322.58z"></path></g></g><g><g><path d="M501.854,471.597H299.446c14.009-4.578,27.251-9.937,39.672-16.026h103.196c5.541,0,10.035-4.493,10.035-10.035 c0-5.542-4.494-10.035-10.035-10.035h-69.036c0.869-0.608,1.742-1.213,2.599-1.831c40.37-29.098,53.658-58.445,54.204-59.68 c1.456-3.294,1.035-7.117-1.104-10.015c-2.139-2.899-5.675-4.421-9.244-4.009c-28.391,3.33-46.773-2.979-52.4-10.709 c-1.937-2.661-1.5-4.497-0.904-5.799c2.51-5.482,13.644-12.568,36.762-14.491c47.209-3.932,74.061-23.052,88.275-38.399 c15.826-17.089,20.065-33.6,20.237-34.294c0.787-3.164-0.012-6.513-2.142-8.98c-2.129-2.467-5.324-3.747-8.572-3.429 c-28.723,2.805-50.073-1.68-61.738-12.974c-7.932-7.679-9.863-16.88-10.305-21.775c43.438-41.821,46.108-89.178,40.508-121.897 c-6.118-35.74-22.957-61.342-23.671-62.415c-2.069-3.107-5.687-4.803-9.403-4.417c-3.712,0.39-6.902,2.81-8.279,6.279 c-12.841,32.349-56.202,115.532-101.891,111.896c-17.149-1.354-20.794-8.359-21.991-10.661 c-7.997-15.37,6.337-46.205,11.984-55.786c1.651-2.787,1.854-6.199,0.548-9.161c-1.308-2.963-3.963-5.114-7.133-5.775 c-1.705-0.354-42.413-8.474-98.648,12.112c-32.661,11.958-63.945,31.197-92.979,57.187c-35.961,32.188-68.562,74.893-96.9,126.93 c-0.007,0.014-0.014,0.028-0.022,0.041C7.287,277.438,0,304.804,0,332.615c0,87.702,71.347,159.053,159.043,159.053h342.811 c5.541,0,10.035-4.493,10.035-10.035C511.889,476.09,507.395,471.597,501.854,471.597z M160.84,471.587c-0.01,0-0.021,0-0.031,0 c-0.535,0.008-1.07,0.009-1.606,0.009h-0.161C82.412,471.597,20.07,409.25,20.07,332.615c0-24.202,6.313-48.009,18.247-68.89 c0.019-0.033,0.042-0.062,0.061-0.095c0.087-0.152,0.171-0.311,0.255-0.469c24.807-42.882,70.938-69.52,120.409-69.52 c76.635,0,138.983,62.343,138.983,138.973c0,75.67-61.54,138.014-137.184,138.974C160.841,471.587,160.84,471.587,160.84,471.587z M272.183,444.408c29.607-29.961,45.913-69.664,45.913-111.793c0-87.697-71.351-159.043-159.053-159.043 c-26.298,0-51.766,6.585-74.351,18.546c47.779-61.45,96.084-90.153,131.898-103.509c32.847-12.249,60.04-13.648,75.382-13.073 c-7.129,15.95-15.622,42.233-5.574,61.594c6.615,12.745,19.478,19.958,38.232,21.438c30.133,2.389,60.001-18.367,88.847-61.666 c10.587-15.891,18.993-31.819,24.71-43.668c4.257,9.552,8.939,22.494,11.486,37.37c7.122,41.607-5.526,77.544-37.593,106.814 c-1.869,1.706-3.025,4.055-3.235,6.577c-0.078,0.947-1.73,23.396,16.089,40.964c13.354,13.168,33.491,19.8,60.016,19.799 c0.385,0,0.77-0.001,1.158-0.004c-9.524,15.643-32.505,39.876-84.58,44.213c-27.74,2.308-46.684,11.591-53.344,26.138 c-3.919,8.56-2.853,18.023,2.925,25.963c9,12.368,27.421,19.359,51.032,19.851c-7.528,9.983-20.009,23.709-39.242,37.362 c-23.131,16.42-59.524,35.015-113.587,45.331C257.433,457.991,265.094,451.582,272.183,444.408z"></path></g></g><g><g><path d="M229.241,151.301c-12.914,0-12.935,20.07,0,20.07C242.154,171.371,242.175,151.301,229.241,151.301z"></path></g></g><g><g><path d="M473.756,435.502c-12.914,0-12.935,20.07,0,20.07C486.67,455.572,486.691,435.502,473.756,435.502z"></path></g></g></svg>