<svg width="24" height="24" viewBox="0 0 24 24" fill="none" xmlns="http://www.w3.org/2000/svg">
<path d="M11.7544 22.75C10.2289 22.7341 8.85435 22.4719 7.63078 21.9634C6.42309 21.4708 5.3902 20.7796 4.53211 19.8897C3.68991 18.9998 3.03839 17.951 2.57756 16.7433C2.13262 15.5357 1.91016 14.2088 1.91016 12.7627C1.91016 11.1101 2.14852 9.58463 2.62523 8.18625C3.10195 6.78788 3.80114 5.57225 4.7228 4.53936C5.64445 3.50647 6.77268 2.70399 8.1075 2.13193C9.4582 1.54398 10.9916 1.25 12.7078 1.25C14.2015 1.25 15.5284 1.50425 16.6884 2.01275C17.8484 2.50536 18.8257 3.20455 19.6202 4.11031C20.4148 5.01607 21.0186 6.06486 21.4318 7.25665C21.8608 8.44845 22.0753 9.73559 22.0753 11.1181C22.0753 11.8014 22.0197 12.5164 21.9085 13.2633C21.7973 13.9943 21.5907 14.6855 21.2888 15.337C20.9868 15.9727 20.5578 16.4891 20.0016 16.8864C19.4613 17.2836 18.7463 17.4823 17.8564 17.4823C17.1095 17.4823 16.4898 17.2995 15.9972 16.934C15.5046 16.5527 15.1947 16.0044 15.0676 15.2894C14.7339 15.8455 14.3605 16.2746 13.9473 16.5765C13.5341 16.8625 13.0971 17.0691 12.6363 17.1962C12.1914 17.3075 11.7306 17.3631 11.2538 17.3631C10.3004 17.3472 9.52176 17.1088 8.91792 16.648C8.32996 16.1872 7.90092 15.5992 7.63078 14.8841C7.36064 14.1691 7.22557 13.4302 7.22557 12.6674C7.22557 11.9205 7.32886 11.1975 7.53543 10.4983C7.74201 9.79915 8.05188 9.17942 8.46503 8.63913C8.87819 8.08296 9.38669 7.63803 9.99053 7.30432C10.6103 6.97062 11.3333 6.81171 12.1596 6.8276C12.5728 6.8276 12.978 6.88322 13.3752 6.99446C13.7725 7.10569 14.138 7.30432 14.4717 7.59035C14.8054 7.8605 15.0755 8.22598 15.2821 8.68681L15.5988 7.75245C15.6929 7.47505 15.9636 7.2972 16.2555 7.32103V7.32103C16.6203 7.35081 16.8854 7.68052 16.8376 8.04341C16.7435 8.75843 16.6541 9.47345 16.5692 10.1885C16.4739 11.126 16.3865 12.0636 16.3071 13.0011C16.2912 13.4778 16.2991 13.9545 16.3309 14.4313C16.3786 14.908 16.5216 15.3052 16.7599 15.6231C17.0142 15.925 17.4114 16.0759 17.9517 16.0759C18.492 16.0759 18.929 15.9091 19.2627 15.5754C19.5964 15.2258 19.8507 14.7967 20.0255 14.2882C20.2003 13.7797 20.3194 13.2633 20.383 12.7389C20.4466 12.1986 20.4783 11.7299 20.4783 11.3326C20.4783 10.1567 20.3115 9.06024 19.9778 8.04324C19.66 7.01035 19.1753 6.10458 18.5238 5.32594C17.8882 4.5473 17.0857 3.93551 16.1164 3.49058C15.147 3.04564 14.0109 2.82317 12.7078 2.82317C11.23 2.82317 9.92697 3.07742 8.79874 3.58592C7.68639 4.09442 6.74885 4.80155 5.9861 5.70732C5.23924 6.61308 4.66718 7.66186 4.26991 8.85366C3.88854 10.0296 3.69785 11.2929 3.69785 12.6436C3.69785 14.2644 4.03155 15.7105 4.69896 16.9817C5.36636 18.2371 6.3198 19.2223 7.55927 19.9374C8.81463 20.6683 10.3004 21.0418 12.0166 21.0577C12.4898 21.0577 12.9677 21.0421 13.4409 20.9925C13.9375 20.9405 14.4083 21.2905 14.4439 21.7885V21.7885C14.4733 22.2012 14.1901 22.5735 13.78 22.6275C13.1091 22.7157 12.4337 22.75 11.7544 22.75ZM11.516 15.9329C12.2152 15.9329 12.8032 15.7502 13.2799 15.3847C13.7725 15.0192 14.1539 14.5425 14.424 13.9545C14.71 13.3666 14.869 12.7389 14.9007 12.0715C14.9484 11.4359 14.8769 10.84 14.6862 10.2838C14.5114 9.71175 14.2095 9.24298 13.7804 8.87749C13.3673 8.49612 12.8111 8.30543 12.1119 8.30543C11.3492 8.30543 10.7215 8.5279 10.2289 8.97284C9.73628 9.40188 9.37874 9.95011 9.15628 10.6175C8.93381 11.2849 8.82257 11.9523 8.82257 12.6197C8.82257 12.9534 8.8623 13.3189 8.94175 13.7162C9.02121 14.0976 9.15628 14.4551 9.34696 14.7888C9.55354 15.1225 9.83163 15.4006 10.1812 15.6231C10.5308 15.8296 10.9758 15.9329 11.516 15.9329Z" fill="black"/>
</svg>
