<svg width="24" height="24" viewBox="0 0 24 24" fill="none" xmlns="http://www.w3.org/2000/svg">
<g clip-path="url(#clip0_17_144)">
<path d="M23 12L20.56 9.22001L20.9 5.54001L17.29 4.72001L15.4 1.54001L12 3.00001L8.6 1.54001L6.71 4.72001L3.1 5.53001L3.44 9.21001L1 12L3.44 14.78L3.1 18.47L6.71 19.29L8.6 22.47L12 21L15.4 22.46L17.29 19.28L20.9 18.46L20.56 14.78L23 12Z" fill="#0055FF"/>
<path fill-rule="evenodd" clip-rule="evenodd" d="M8.29147 0.591278L12.0001 2.18379L15.7087 0.591278L17.7702 4.05998L21.7074 4.95429L21.3366 8.96775L23.998 12L21.3366 15.0323L21.7074 19.0457L17.7702 19.94L15.7087 23.4087L12.0011 21.8167L8.29231 23.4202L6.22988 19.95L2.29291 19.0558L2.66363 15.0324L0.00292969 12.0009L2.66363 8.95854L2.29259 4.94255L6.23048 4.05898L8.29147 0.591278ZM8.90866 2.48875L7.18965 5.38106L3.90753 6.11749L4.21649 9.46149L1.99719 11.9991L4.21649 14.5277L3.90721 17.8842L7.19024 18.63L8.90781 21.5198L11.999 20.1833L15.0915 21.5113L16.8099 18.62L20.0928 17.8743L19.7836 14.5277L22.0021 12L19.7836 9.47228L20.0928 6.12574L16.8099 5.38005L15.0915 2.48875L12.0001 3.81624L8.90866 2.48875Z" fill="white"/>
<path d="M10 17L6 13L7.41 11.59L10 14.17L15.59 8.58L17 10L10 17Z" fill="white"/>
</g>
<defs>
<clipPath id="clip0_17_144">
<rect width="24" height="24" fill="white"/>
</clipPath>
</defs>
</svg>
