<svg width="24" height="24" viewBox="0 0 24 24" fill="none" xmlns="http://www.w3.org/2000/svg">
<path fill-rule="evenodd" clip-rule="evenodd" d="M19.0302 4.96967C19.3231 5.26256 19.3231 5.73744 19.0302 6.03033L6.03022 19.0303C5.73732 19.3232 5.26245 19.3232 4.96956 19.0303C4.67666 18.7374 4.67666 18.2626 4.96956 17.9697L17.9696 4.96967C18.2624 4.67678 18.7373 4.67678 19.0302 4.96967Z" fill="black"/>
<path fill-rule="evenodd" clip-rule="evenodd" d="M5.5 7.5C5.5 8.60457 6.39543 9.5 7.5 9.5C8.60457 9.5 9.5 8.60457 9.5 7.5C9.5 6.39543 8.60457 5.5 7.5 5.5C6.39543 5.5 5.5 6.39543 5.5 7.5ZM7.5 4C5.567 4 4 5.567 4 7.5C4 9.433 5.567 11 7.5 11C9.433 11 11 9.433 11 7.5C11 5.567 9.433 4 7.5 4Z" fill="black"/>
<path fill-rule="evenodd" clip-rule="evenodd" d="M14.5 16.5C14.5 17.6046 15.3954 18.5 16.5 18.5C17.6046 18.5 18.5 17.6046 18.5 16.5C18.5 15.3954 17.6046 14.5 16.5 14.5C15.3954 14.5 14.5 15.3954 14.5 16.5ZM16.5 13C14.567 13 13 14.567 13 16.5C13 18.433 14.567 20 16.5 20C18.433 20 20 18.433 20 16.5C20 14.567 18.433 13 16.5 13Z" fill="black"/>
</svg>
