<svg width="24" height="24" viewBox="0 0 24 24" fill="none" xmlns="http://www.w3.org/2000/svg">
<path fill-rule="evenodd" clip-rule="evenodd" d="M9.94436 3.25H14.0564C15.8944 3.25 17.3504 3.25 18.4894 3.403C19.6614 3.561 20.6104 3.893 21.3594 4.641C22.1074 5.39 22.4394 6.339 22.5974 7.511C22.6874 8.184 22.7244 8.967 22.7394 9.874C22.7518 9.95007 22.7531 10.0275 22.7434 10.104C22.7494 10.6693 22.7517 11.2827 22.7504 11.944V12.056C22.7504 13.894 22.7504 15.35 22.5974 16.489C22.4394 17.661 22.1074 18.61 21.3594 19.359C20.6104 20.107 19.6614 20.439 18.4894 20.597C17.3494 20.75 15.8944 20.75 14.0564 20.75H9.94436C8.10636 20.75 6.65036 20.75 5.51136 20.597C4.33936 20.439 3.39036 20.107 2.64136 19.359C1.89336 18.61 1.56136 17.661 1.40336 16.489C1.25036 15.349 1.25036 13.894 1.25036 12.056V11.944C1.24903 11.2827 1.25136 10.6693 1.25736 10.104C1.24728 10.0276 1.24829 9.95012 1.26036 9.874C1.27636 8.967 1.31336 8.184 1.40336 7.511C1.56136 6.339 1.89336 5.39 2.64136 4.641C3.39036 3.893 4.33936 3.561 5.51136 3.403C6.65136 3.25 8.10636 3.25 9.94436 3.25ZM2.75236 10.75C2.75103 11.138 2.75036 11.5547 2.75036 12C2.75036 13.907 2.75236 15.262 2.89036 16.29C3.02536 17.295 3.27936 17.875 3.70236 18.298C4.12536 18.721 4.70536 18.975 5.71136 19.11C6.73936 19.248 8.09336 19.25 10.0004 19.25H14.0004C15.9074 19.25 17.2624 19.248 18.2904 19.11C19.2954 18.975 19.8754 18.721 20.2984 18.298C20.7214 17.875 20.9754 17.295 21.1104 16.289C21.2484 15.261 21.2504 13.907 21.2504 12C21.2504 11.5547 21.2497 11.138 21.2484 10.75H2.75236ZM21.2244 9.25H2.77636C2.79636 8.663 2.83036 8.156 2.89036 7.71C3.02536 6.705 3.27936 6.125 3.70236 5.702C4.12536 5.279 4.70536 5.025 5.71136 4.89C6.73936 4.752 8.09336 4.75 10.0004 4.75H14.0004C15.9074 4.75 17.2624 4.752 18.2904 4.89C19.2954 5.025 19.8754 5.279 20.2984 5.702C20.7214 6.125 20.9754 6.705 21.1104 7.711C21.1704 8.156 21.2044 8.663 21.2244 9.25ZM5.25036 16C5.25036 15.8011 5.32938 15.6103 5.47003 15.4697C5.61069 15.329 5.80145 15.25 6.00036 15.25H10.0004C10.1993 15.25 10.39 15.329 10.5307 15.4697C10.6713 15.6103 10.7504 15.8011 10.7504 16C10.7504 16.1989 10.6713 16.3897 10.5307 16.5303C10.39 16.671 10.1993 16.75 10.0004 16.75H6.00036C5.80145 16.75 5.61069 16.671 5.47003 16.5303C5.32938 16.3897 5.25036 16.1989 5.25036 16ZM11.7504 16C11.7504 15.8011 11.8294 15.6103 11.97 15.4697C12.1107 15.329 12.3015 15.25 12.5004 15.25H14.0004C14.1993 15.25 14.39 15.329 14.5307 15.4697C14.6713 15.6103 14.7504 15.8011 14.7504 16C14.7504 16.1989 14.6713 16.3897 14.5307 16.5303C14.39 16.671 14.1993 16.75 14.0004 16.75H12.5004C12.3015 16.75 12.1107 16.671 11.97 16.5303C11.8294 16.3897 11.7504 16.1989 11.7504 16Z" fill="black"/>
</svg>
