<svg width="24" height="24" viewBox="0 0 24 24" fill="none" xmlns="http://www.w3.org/2000/svg">
<path fill-rule="evenodd" clip-rule="evenodd" d="M11.164 1.25H12.836C13.567 1.25 14.182 1.25 14.681 1.31C15.21 1.375 15.693 1.515 16.116 1.855C16.539 2.195 16.782 2.635 16.959 3.138C17.125 3.608 17.259 4.205 17.416 4.913C17.4913 4.95567 17.5657 5.00167 17.639 5.051C18.158 5.397 18.603 5.842 18.949 6.361C19.383 7.009 19.572 7.751 19.662 8.638C19.75 9.504 19.75 10.589 19.75 11.958V12.042C19.75 13.411 19.75 14.496 19.662 15.362C19.572 16.25 19.382 16.991 18.95 17.639C18.5537 18.2305 18.0294 18.7254 17.416 19.087C17.258 19.795 17.126 20.391 16.959 20.862C16.782 21.364 16.54 21.805 16.116 22.145C15.693 22.485 15.21 22.625 14.681 22.69C14.182 22.75 13.567 22.75 12.836 22.75H11.164C10.433 22.75 9.818 22.75 9.319 22.69C8.79 22.625 8.307 22.485 7.884 22.145C7.461 21.805 7.218 21.365 7.041 20.862C6.875 20.392 6.741 19.795 6.584 19.087C5.97071 18.7257 5.44646 18.2312 5.05 17.64C4.617 16.992 4.428 16.25 4.338 15.363C4.25 14.497 4.25 13.412 4.25 12.043V11.959C4.25 10.59 4.25 9.505 4.338 8.639C4.428 7.751 4.618 7.01 5.051 6.362C5.44705 5.77057 5.97096 5.27571 6.584 4.914C6.742 4.206 6.874 3.61 7.041 3.139C7.218 2.637 7.46 2.196 7.884 1.856C8.307 1.516 8.79 1.376 9.319 1.311C9.818 1.251 10.433 1.251 11.164 1.251M8.244 4.388C8.37267 4.36867 8.504 4.35233 8.638 4.339C9.504 4.251 10.589 4.251 11.958 4.251H12.042C13.411 4.251 14.496 4.251 15.362 4.339C15.4967 4.35233 15.6283 4.36867 15.757 4.388C15.6986 4.1347 15.6278 3.88441 15.545 3.638C15.418 3.28 15.302 3.126 15.178 3.026C15.053 2.926 14.878 2.846 14.5 2.801C14.102 2.752 13.579 2.751 12.791 2.751H11.21C10.422 2.751 9.898 2.752 9.501 2.801C9.124 2.846 8.948 2.926 8.823 3.026C8.699 3.126 8.583 3.28 8.456 3.639C8.37322 3.88508 8.30247 4.13504 8.244 4.388ZM8.244 19.614C8.316 19.916 8.384 20.159 8.455 20.364C8.582 20.722 8.698 20.876 8.822 20.976C8.947 21.076 9.122 21.156 9.5 21.202C9.898 21.25 10.421 21.251 11.209 21.251H12.791C13.579 21.251 14.103 21.25 14.501 21.201C14.877 21.156 15.053 21.076 15.178 20.976C15.302 20.876 15.418 20.722 15.545 20.363C15.6278 20.1169 15.6985 19.867 15.757 19.614C15.6283 19.6333 15.4967 19.6497 15.362 19.663C14.496 19.751 13.411 19.751 12.042 19.751H11.958C10.589 19.751 9.504 19.751 8.638 19.663C8.50599 19.6496 8.37429 19.6332 8.243 19.614M8.79 5.83C8.02 5.909 7.555 6.057 7.194 6.298C6.84026 6.53598 6.53598 6.84026 6.298 7.194C6.057 7.555 5.908 8.021 5.83 8.79C5.75 9.571 5.75 10.58 5.75 12C5.75 13.42 5.75 14.429 5.83 15.21C5.909 15.98 6.057 16.445 6.298 16.806C6.535 17.16 6.84 17.466 7.194 17.702C7.555 17.943 8.021 18.092 8.79 18.17C9.571 18.25 10.58 18.25 12 18.25C13.42 18.25 14.429 18.25 15.21 18.17C15.98 18.091 16.445 17.943 16.806 17.702C17.16 17.465 17.466 17.16 17.702 16.806C17.943 16.445 18.092 15.979 18.17 15.21C18.25 14.429 18.25 13.42 18.25 12C18.25 10.58 18.25 9.571 18.17 8.79C18.091 8.02 17.943 7.555 17.702 7.194C17.464 6.84026 17.1597 6.53598 16.806 6.298C16.445 6.057 15.979 5.908 15.21 5.83C14.429 5.75 13.42 5.75 12 5.75C10.58 5.75 9.571 5.75 8.79 5.83ZM12 8.25C12.1989 8.25 12.3897 8.32902 12.5303 8.46967C12.671 8.61032 12.75 8.80109 12.75 9V11.758L14.52 13.459C14.591 13.5273 14.6479 13.6089 14.6874 13.6992C14.727 13.7895 14.7483 13.8866 14.7502 13.9852C14.7522 14.0837 14.7347 14.1816 14.6988 14.2734C14.6629 14.3652 14.6093 14.449 14.541 14.52C14.4727 14.591 14.3911 14.6479 14.3008 14.6874C14.2105 14.727 14.1134 14.7483 14.0148 14.7502C13.9163 14.7522 13.8184 14.7347 13.7266 14.6988C13.6348 14.6629 13.551 14.6093 13.48 14.541L11.864 12.986C11.561 12.696 11.41 12.55 11.33 12.362C11.25 12.175 11.25 11.965 11.25 11.545V9C11.25 8.80109 11.329 8.61032 11.4697 8.46967C11.6103 8.32902 11.8011 8.25 12 8.25Z" fill="black"/>
</svg>
