<svg width="24" height="24" viewBox="0 0 24 24" fill="none" xmlns="http://www.w3.org/2000/svg">
<path fill-rule="evenodd" clip-rule="evenodd" d="M20.924 11.7502H18.23C16.806 11.7502 15.749 12.8092 15.749 14.0002C15.749 15.1912 16.806 16.2502 18.229 16.2502H20.947C21.153 16.2372 21.242 16.0982 21.249 16.0142V11.9862C21.242 11.9022 21.153 11.7632 20.947 11.7512L20.924 11.7502ZM20.85 10.2502C20.9167 10.2495 20.98 10.2508 21.04 10.2542C21.91 10.3072 22.681 10.9642 22.746 11.8822C22.75 11.9422 22.75 12.0072 22.75 12.0672V15.9332C22.75 15.9932 22.75 16.0582 22.746 16.1182C22.681 17.0362 21.91 17.6932 21.039 17.7472C20.9797 17.7498 20.9163 17.7508 20.849 17.7502H18.231C16.086 17.7502 14.25 16.1222 14.25 14.0002C14.25 11.8782 16.086 10.2502 18.23 10.2502H20.85Z" fill="black"/>
<path d="M19 14C19 14.2652 18.8946 14.5196 18.7071 14.7071C18.5196 14.8946 18.2652 15 18 15C17.7348 15 17.4804 14.8946 17.2929 14.7071C17.1054 14.5196 17 14.2652 17 14C17 13.7348 17.1054 13.4804 17.2929 13.2929C17.4804 13.1054 17.7348 13 18 13C18.2652 13 18.5196 13.1054 18.7071 13.2929C18.8946 13.4804 19 13.7348 19 14" fill="black"/>
<path fill-rule="evenodd" clip-rule="evenodd" d="M20.85 10.25C20.9167 10.2494 20.98 10.2507 21.04 10.254C21.265 10.267 21.483 10.321 21.685 10.41C21.578 8.80402 21.283 7.56603 20.359 6.64103C19.61 5.89303 18.661 5.56103 17.489 5.40303L17.447 5.39803L17.415 5.37503L13.679 2.89803C13.0308 2.47547 12.2738 2.25049 11.5 2.25049C10.7262 2.25049 9.96918 2.47547 9.321 2.89803L5.586 5.37503L5.553 5.39803L5.511 5.40303C4.339 5.56103 3.39 5.89303 2.641 6.64103C1.893 7.39003 1.561 8.33902 1.403 9.51102C1.25 10.651 1.25 12.106 1.25 13.944V14.056C1.25 15.894 1.25 17.35 1.403 18.489C1.561 19.661 1.893 20.61 2.641 21.359C3.39 22.107 4.339 22.439 5.511 22.597C6.651 22.75 8.106 22.75 9.944 22.75H13.056C14.894 22.75 16.35 22.75 17.489 22.597C18.661 22.439 19.61 22.107 20.359 21.359C21.283 20.434 21.578 19.196 21.685 17.589C21.4817 17.6797 21.2663 17.7324 21.039 17.747C20.9797 17.7497 20.9163 17.7507 20.849 17.75H20.168C20.054 19.092 19.797 19.8 19.298 20.298C18.875 20.721 18.295 20.975 17.289 21.11C16.262 21.248 14.907 21.25 13 21.25H10C8.093 21.25 6.739 21.248 5.71 21.11C4.705 20.975 4.125 20.721 3.702 20.298C3.279 19.875 3.025 19.295 2.89 18.289C2.752 17.262 2.75 15.907 2.75 14C2.75 12.093 2.752 10.739 2.89 9.71003C3.025 8.70503 3.279 8.12503 3.702 7.70203C4.125 7.27903 4.705 7.02503 5.711 6.89003C6.739 6.75203 8.093 6.75003 10 6.75003H13C14.907 6.75003 16.262 6.75203 17.29 6.89003C18.295 7.02503 18.875 7.27903 19.298 7.70203C19.797 8.20003 20.054 8.90903 20.168 10.25H20.85ZM9.944 5.25003H13.056C13.5727 5.25003 14.0593 5.25103 14.516 5.25303L12.85 4.14803C12.05 3.61803 10.95 3.61803 10.15 4.14803L8.483 5.25303C8.94033 5.25036 9.427 5.24936 9.943 5.25003" fill="black"/>
<path d="M6 9.25C5.80109 9.25 5.61032 9.32902 5.46967 9.46967C5.32902 9.61032 5.25 9.80109 5.25 10C5.25 10.1989 5.32902 10.3897 5.46967 10.5303C5.61032 10.671 5.80109 10.75 6 10.75H10C10.1989 10.75 10.3897 10.671 10.5303 10.5303C10.671 10.3897 10.75 10.1989 10.75 10C10.75 9.80109 10.671 9.61032 10.5303 9.46967C10.3897 9.32902 10.1989 9.25 10 9.25H6Z" fill="black"/>
<path d="M19 14C19 14.2652 18.8946 14.5196 18.7071 14.7071C18.5196 14.8946 18.2652 15 18 15C17.7348 15 17.4804 14.8946 17.2929 14.7071C17.1054 14.5196 17 14.2652 17 14C17 13.7348 17.1054 13.4804 17.2929 13.2929C17.4804 13.1054 17.7348 13 18 13C18.2652 13 18.5196 13.1054 18.7071 13.2929C18.8946 13.4804 19 13.7348 19 14" fill="black"/>
</svg>
