<svg width="24" height="24" viewBox="0 0 24 24" fill="none" xmlns="http://www.w3.org/2000/svg">
<path fill-rule="evenodd" clip-rule="evenodd" d="M6.00696 3.407C7.68695 1.727 10.523 1.855 11.693 3.951L12.342 5.114C13.105 6.482 12.78 8.209 11.662 9.341C11.5959 9.44114 11.5598 9.55805 11.558 9.678C11.545 9.934 11.636 10.527 12.555 11.445C13.473 12.363 14.065 12.455 14.322 12.442C14.4419 12.4401 14.5588 12.404 14.659 12.338C15.79 11.22 17.518 10.895 18.886 11.658L20.049 12.308C22.145 13.478 22.273 16.312 20.593 17.993C19.694 18.891 18.5 19.69 17.095 19.743C15.015 19.822 11.559 19.284 8.13696 15.863C4.71596 12.441 4.17796 8.986 4.25696 6.905C4.30996 5.5 5.10896 4.305 6.00696 3.407ZM10.383 4.682C9.78296 3.608 8.17296 3.362 7.06796 4.468C6.29295 5.243 5.78796 6.098 5.75596 6.961C5.68996 8.697 6.11896 11.723 9.19796 14.801C12.278 17.881 15.303 18.31 17.038 18.244C17.901 18.211 18.758 17.707 19.532 16.932C20.638 15.826 20.392 14.216 19.318 13.617L18.155 12.968C17.432 12.565 16.415 12.702 15.702 13.416C15.632 13.486 15.186 13.902 14.395 13.94C13.585 13.98 12.604 13.616 11.495 12.506C10.384 11.396 10.02 10.415 10.06 9.604C10.098 8.813 10.515 8.367 10.584 8.297C11.298 7.584 11.435 6.568 11.032 5.845L10.383 4.682Z" fill="black"/>
</svg>
