<svg width="24" height="24" viewBox="0 0 24 24" fill="none" xmlns="http://www.w3.org/2000/svg">
<path fill-rule="evenodd" clip-rule="evenodd" d="M9.94412 3.25H14.0561C15.8941 3.25 17.3501 3.25 18.4891 3.403C19.6611 3.561 20.6101 3.893 21.3591 4.641C22.1071 5.39 22.4391 6.339 22.5971 7.511C22.6871 8.184 22.7241 8.967 22.7391 9.874C22.7515 9.95007 22.7529 10.0275 22.7431 10.104C22.7491 10.6693 22.7515 11.2827 22.7501 11.944V12C22.7501 12.1989 22.6711 12.3897 22.5305 12.5303C22.3898 12.671 22.199 12.75 22.0001 12.75C21.8012 12.75 21.6104 12.671 21.4698 12.5303C21.3291 12.3897 21.2501 12.1989 21.2501 12C21.2501 11.5547 21.2495 11.138 21.2481 10.75H2.75212C2.75012 11.138 2.74945 11.5547 2.75012 12C2.75012 13.907 2.75212 15.262 2.89012 16.29C3.02512 17.295 3.27912 17.875 3.70212 18.298C4.12512 18.721 4.70512 18.975 5.71112 19.11C6.73912 19.248 8.09312 19.25 10.0001 19.25H14.0001C14.199 19.25 14.3898 19.329 14.5304 19.4697C14.6711 19.6103 14.7501 19.8011 14.7501 20C14.7501 20.1989 14.6711 20.3897 14.5304 20.5303C14.3898 20.671 14.199 20.75 14.0001 20.75H9.94412C8.10612 20.75 6.65012 20.75 5.51112 20.597C4.33912 20.439 3.39012 20.107 2.64112 19.359C1.89312 18.61 1.56112 17.661 1.40312 16.489C1.25012 15.349 1.25012 13.894 1.25012 12.056V11.944C1.24879 11.2827 1.25112 10.6693 1.25712 10.104C1.24703 10.0276 1.24805 9.95012 1.26012 9.874C1.27612 8.967 1.31312 8.184 1.40312 7.511C1.56112 6.339 1.89312 5.39 2.64112 4.641C3.39012 3.893 4.33912 3.561 5.51112 3.403C6.65112 3.25 8.10612 3.25 9.94412 3.25ZM2.77612 9.25H21.2241C21.2109 8.73513 21.1729 8.2212 21.1101 7.71C20.9751 6.705 20.7211 6.125 20.2981 5.702C19.8751 5.279 19.2951 5.025 18.2891 4.89C17.2621 4.752 15.9071 4.75 14.0001 4.75H10.0001C8.09312 4.75 6.73912 4.752 5.71012 4.89C4.70512 5.025 4.12512 5.279 3.70212 5.702C3.27912 6.125 3.02512 6.705 2.89012 7.71C2.83012 8.155 2.79612 8.662 2.77612 9.249M19.0001 13.249C19.199 13.249 19.3898 13.328 19.5305 13.4687C19.6711 13.6093 19.7501 13.8001 19.7501 13.999V18.189L20.4701 17.469C20.5388 17.3953 20.6216 17.3362 20.7136 17.2952C20.8056 17.2542 20.9049 17.2322 21.0056 17.2304C21.1063 17.2286 21.2063 17.2472 21.2997 17.2849C21.3931 17.3226 21.4779 17.3787 21.5492 17.45C21.6204 17.5212 21.6765 17.606 21.7142 17.6994C21.752 17.7928 21.7705 17.8928 21.7687 17.9935C21.7669 18.0942 21.7449 18.1935 21.7039 18.2855C21.6629 18.3775 21.6038 18.4603 21.5301 18.529L19.5301 20.529C19.3895 20.6694 19.1989 20.7483 19.0001 20.7483C18.8014 20.7483 18.6107 20.6694 18.4701 20.529L16.4701 18.529C16.3964 18.4603 16.3373 18.3775 16.2963 18.2855C16.2553 18.1935 16.2333 18.0942 16.2315 17.9935C16.2298 17.8928 16.2483 17.7928 16.286 17.6994C16.3237 17.606 16.3799 17.5212 16.4511 17.45C16.5223 17.3787 16.6071 17.3226 16.7005 17.2849C16.7939 17.2472 16.8939 17.2286 16.9946 17.2304C17.0953 17.2322 17.1947 17.2542 17.2867 17.2952C17.3787 17.3362 17.4615 17.3953 17.5301 17.469L18.2501 18.189V14C18.2501 13.8011 18.3291 13.6103 18.4698 13.4697C18.6104 13.329 18.8012 13.25 19.0001 13.25M5.25012 16C5.25012 15.8011 5.32914 15.6103 5.46979 15.4697C5.61044 15.329 5.80121 15.25 6.00012 15.25H10.0001C10.199 15.25 10.3898 15.329 10.5304 15.4697C10.6711 15.6103 10.7501 15.8011 10.7501 16C10.7501 16.1989 10.6711 16.3897 10.5304 16.5303C10.3898 16.671 10.199 16.75 10.0001 16.75H6.00012C5.80121 16.75 5.61044 16.671 5.46979 16.5303C5.32914 16.3897 5.25012 16.1989 5.25012 16ZM11.7501 16C11.7501 15.8011 11.8291 15.6103 11.9698 15.4697C12.1104 15.329 12.3012 15.25 12.5001 15.25H13.0001C13.199 15.25 13.3898 15.329 13.5304 15.4697C13.6711 15.6103 13.7501 15.8011 13.7501 16C13.7501 16.1989 13.6711 16.3897 13.5304 16.5303C13.3898 16.671 13.199 16.75 13.0001 16.75H12.5001C12.3012 16.75 12.1104 16.671 11.9698 16.5303C11.8291 16.3897 11.7501 16.1989 11.7501 16Z" fill="black"/>
</svg>
