<svg width="22" height="18" viewBox="0 0 22 18" fill="none" xmlns="http://www.w3.org/2000/svg">
<path fill-rule="evenodd" clip-rule="evenodd" d="M8.94412 0.25H13.0561C14.8941 0.25 16.3501 0.25 17.4891 0.403C18.6611 0.561 19.6101 0.893 20.3591 1.641C21.1071 2.39 21.4391 3.339 21.5971 4.511C21.6871 5.184 21.7241 5.967 21.7391 6.874C21.7515 6.95007 21.7529 7.02754 21.7431 7.104C21.7491 7.66933 21.7515 8.28267 21.7501 8.944V9C21.7501 9.19891 21.6711 9.38968 21.5305 9.53033C21.3898 9.67098 21.199 9.75 21.0001 9.75C20.8012 9.75 20.6104 9.67098 20.4698 9.53033C20.3291 9.38968 20.2501 9.19891 20.2501 9C20.2501 8.55467 20.2495 8.138 20.2481 7.75H1.75212C1.75012 8.138 1.74945 8.55467 1.75012 9C1.75012 10.907 1.75212 12.262 1.89012 13.29C2.02512 14.295 2.27912 14.875 2.70212 15.298C3.12512 15.721 3.70512 15.975 4.71112 16.11C5.73912 16.248 7.09312 16.25 9.00012 16.25H13.0001C13.199 16.25 13.3898 16.329 13.5304 16.4697C13.6711 16.6103 13.7501 16.8011 13.7501 17C13.7501 17.1989 13.6711 17.3897 13.5304 17.5303C13.3898 17.671 13.199 17.75 13.0001 17.75H8.94412C7.10612 17.75 5.65012 17.75 4.51112 17.597C3.33912 17.439 2.39012 17.107 1.64112 16.359C0.893119 15.61 0.561119 14.661 0.403119 13.489C0.250119 12.349 0.250119 10.894 0.250119 9.056V8.944C0.248786 8.28267 0.251119 7.66933 0.257119 7.104C0.247035 7.02759 0.248045 6.95012 0.260119 6.874C0.276119 5.967 0.313119 5.184 0.403119 4.511C0.561119 3.339 0.893119 2.39 1.64112 1.641C2.39012 0.893 3.33912 0.561 4.51112 0.403C5.65112 0.25 7.10612 0.25 8.94412 0.25ZM1.77612 6.25H20.2241C20.2109 5.73513 20.1729 5.2212 20.1101 4.71C19.9751 3.705 19.7211 3.125 19.2981 2.702C18.8751 2.279 18.2951 2.025 17.2891 1.89C16.2621 1.752 14.9071 1.75 13.0001 1.75H9.00012C7.09312 1.75 5.73912 1.752 4.71012 1.89C3.70512 2.025 3.12512 2.279 2.70212 2.702C2.27912 3.125 2.02512 3.705 1.89012 4.71C1.83012 5.155 1.79612 5.662 1.77612 6.249M18.0001 10.249C18.199 10.249 18.3898 10.328 18.5305 10.4687C18.6711 10.6093 18.7501 10.8001 18.7501 10.999V15.189L19.4701 14.469C19.5388 14.3953 19.6216 14.3362 19.7136 14.2952C19.8056 14.2542 19.9049 14.2322 20.0056 14.2304C20.1063 14.2286 20.2063 14.2472 20.2997 14.2849C20.3931 14.3226 20.4779 14.3787 20.5492 14.45C20.6204 14.5212 20.6765 14.606 20.7142 14.6994C20.752 14.7928 20.7705 14.8928 20.7687 14.9935C20.7669 15.0942 20.7449 15.1935 20.7039 15.2855C20.6629 15.3775 20.6038 15.4603 20.5301 15.529L18.5301 17.529C18.3895 17.6694 18.1989 17.7483 18.0001 17.7483C17.8014 17.7483 17.6107 17.6694 17.4701 17.529L15.4701 15.529C15.3964 15.4603 15.3373 15.3775 15.2963 15.2855C15.2553 15.1935 15.2333 15.0942 15.2315 14.9935C15.2298 14.8928 15.2483 14.7928 15.286 14.6994C15.3237 14.606 15.3799 14.5212 15.4511 14.45C15.5223 14.3787 15.6071 14.3226 15.7005 14.2849C15.7939 14.2472 15.8939 14.2286 15.9946 14.2304C16.0953 14.2322 16.1947 14.2542 16.2867 14.2952C16.3787 14.3362 16.4615 14.3953 16.5301 14.469L17.2501 15.189V11C17.2501 10.8011 17.3291 10.6103 17.4698 10.4697C17.6104 10.329 17.8012 10.25 18.0001 10.25M4.25012 13C4.25012 12.8011 4.32914 12.6103 4.46979 12.4697C4.61044 12.329 4.80121 12.25 5.00012 12.25H9.00012C9.19903 12.25 9.3898 12.329 9.53045 12.4697C9.6711 12.6103 9.75012 12.8011 9.75012 13C9.75012 13.1989 9.6711 13.3897 9.53045 13.5303C9.3898 13.671 9.19903 13.75 9.00012 13.75H5.00012C4.80121 13.75 4.61044 13.671 4.46979 13.5303C4.32914 13.3897 4.25012 13.1989 4.25012 13ZM10.7501 13C10.7501 12.8011 10.8291 12.6103 10.9698 12.4697C11.1104 12.329 11.3012 12.25 11.5001 12.25H12.0001C12.199 12.25 12.3898 12.329 12.5304 12.4697C12.6711 12.6103 12.7501 12.8011 12.7501 13C12.7501 13.1989 12.6711 13.3897 12.5304 13.5303C12.3898 13.671 12.199 13.75 12.0001 13.75H11.5001C11.3012 13.75 11.1104 13.671 10.9698 13.5303C10.8291 13.3897 10.7501 13.1989 10.7501 13Z" fill="black"/>
</svg>
