<svg width="133" height="29" viewBox="0 0 133 29" fill="none" xmlns="http://www.w3.org/2000/svg">
<path d="M0.336426 27.9999V4.19994H6.93243L16.4524 19.7379H12.9844L22.2324 4.19994H28.8284L28.8964 27.9999H21.5864L21.5184 15.2159H22.6744L16.3504 25.8579H12.8144L6.21843 15.2159H7.64643V27.9999H0.336426Z" fill="white"/>
<path d="M43.7919 27.9999V24.7019L43.2479 23.8179V17.5619C43.2479 16.6553 42.9645 15.9639 42.3979 15.4879C41.8539 15.0119 40.9585 14.7739 39.7119 14.7739C38.8732 14.7739 38.0232 14.9099 37.1619 15.1819C36.3005 15.4313 35.5639 15.7826 34.9519 16.2359L32.5039 11.1699C33.5919 10.4899 34.8952 9.9686 36.4139 9.60594C37.9325 9.24327 39.4172 9.06194 40.8679 9.06194C44.0639 9.06194 46.5345 9.77594 48.2799 11.2039C50.0479 12.6319 50.9319 14.8986 50.9319 18.0039V27.9999H43.7919ZM38.5219 28.3399C37.0032 28.3399 35.7339 28.0793 34.7139 27.5579C33.6939 27.0366 32.9232 26.3453 32.4019 25.4839C31.8805 24.5999 31.6199 23.6253 31.6199 22.5599C31.6199 21.3586 31.9259 20.3386 32.5379 19.4999C33.1499 18.6613 34.0792 18.0266 35.3259 17.5959C36.5952 17.1653 38.1932 16.9499 40.1199 16.9499H43.9959V20.6559H41.3439C40.5279 20.6559 39.9272 20.7919 39.5419 21.0639C39.1792 21.3133 38.9979 21.6986 38.9979 22.2199C38.9979 22.6506 39.1565 23.0133 39.4739 23.3079C39.8139 23.5799 40.2672 23.7159 40.8339 23.7159C41.3552 23.7159 41.8312 23.5799 42.2619 23.3079C42.7152 23.0133 43.0439 22.5599 43.2479 21.9479L44.2339 24.2259C43.9392 25.6086 43.3159 26.6399 42.3639 27.3199C41.4119 27.9999 40.1312 28.3399 38.5219 28.3399Z" fill="white"/>
<path d="M54.2527 27.9999V9.40194H61.5627V15.0119L60.3727 13.4139C60.9394 11.9633 61.8461 10.8753 63.0927 10.1499C64.3394 9.4246 65.8354 9.06194 67.5807 9.06194V15.8619C67.2407 15.8166 66.9347 15.7826 66.6627 15.7599C66.4134 15.7373 66.1527 15.7259 65.8807 15.7259C64.7247 15.7259 63.7727 16.0319 63.0247 16.6439C62.2994 17.2333 61.9367 18.2646 61.9367 19.7379V27.9999H54.2527Z" fill="white"/>
<path d="M69.7586 27.9999V9.40194H77.4426V27.9999H69.7586ZM73.6006 7.90594C72.1952 7.90594 71.0732 7.53194 70.2346 6.78394C69.3959 6.03594 68.9766 5.10661 68.9766 3.99594C68.9766 2.88527 69.3959 1.95594 70.2346 1.20794C71.0732 0.459937 72.1952 0.0859375 73.6006 0.0859375C75.0059 0.0859375 76.1279 0.437271 76.9666 1.13994C77.8052 1.8426 78.2246 2.74927 78.2246 3.85994C78.2246 5.0386 77.8052 6.01327 76.9666 6.78394C76.1279 7.53194 75.0059 7.90594 73.6006 7.90594Z" fill="white"/>
<path d="M89.0084 28.3399C87.3991 28.3399 85.9031 27.9546 84.5204 27.1839C83.1604 26.3906 82.0724 25.2799 81.2564 23.8519C80.4404 22.4013 80.0324 20.6786 80.0324 18.6839C80.0324 16.6893 80.4404 14.9779 81.2564 13.5499C82.0724 12.0993 83.1604 10.9886 84.5204 10.2179C85.9031 9.44727 87.3991 9.06194 89.0084 9.06194C90.6404 9.06194 91.9778 9.41327 93.0204 10.1159C94.0631 10.7959 94.8338 11.8499 95.3324 13.2779C95.8311 14.6833 96.0804 16.4853 96.0804 18.6839C96.0804 20.9053 95.8424 22.7299 95.3664 24.1579C94.9131 25.5859 94.1651 26.6399 93.1224 27.3199C92.1024 27.9999 90.7311 28.3399 89.0084 28.3399ZM90.8444 22.3559C91.4111 22.3559 91.9211 22.2199 92.3744 21.9479C92.8278 21.6759 93.1904 21.2679 93.4624 20.7239C93.7344 20.1573 93.8704 19.4773 93.8704 18.6839C93.8704 17.8679 93.7344 17.1993 93.4624 16.6779C93.1904 16.1339 92.8278 15.7259 92.3744 15.4539C91.9211 15.1819 91.4111 15.0459 90.8444 15.0459C90.2778 15.0459 89.7678 15.1819 89.3144 15.4539C88.8611 15.7259 88.4984 16.1339 88.2264 16.6779C87.9544 17.1993 87.8184 17.8679 87.8184 18.6839C87.8184 19.4773 87.9544 20.1573 88.2264 20.7239C88.4984 21.2679 88.8611 21.6759 89.3144 21.9479C89.7678 22.2199 90.2778 22.3559 90.8444 22.3559ZM94.1084 27.9999V25.4839L94.0744 18.6839L93.7344 11.8839V2.77194H101.418V27.9999H94.1084Z" fill="white"/>
<path d="M104.821 27.9999V9.40194H112.505V27.9999H104.821ZM108.663 7.90594C107.258 7.90594 106.136 7.53194 105.297 6.78394C104.458 6.03594 104.039 5.10661 104.039 3.99594C104.039 2.88527 104.458 1.95594 105.297 1.20794C106.136 0.459937 107.258 0.0859375 108.663 0.0859375C110.068 0.0859375 111.19 0.437271 112.029 1.13994C112.868 1.8426 113.287 2.74927 113.287 3.85994C113.287 5.0386 112.868 6.01327 112.029 6.78394C111.19 7.53194 110.068 7.90594 108.663 7.90594Z" fill="white"/>
<path d="M115.231 27.9999V23.5799L125.125 12.5639L126.383 15.0119H115.503V9.40194H132.605V13.8219L122.711 24.8379L121.453 22.3899H132.979V27.9999H115.231Z" fill="white"/>
</svg>
