<svg xmlns="http://www.w3.org/2000/svg" fill="none" viewBox="0 0 96 64" height="64" width="96" preserveAspectRatio="xMinYMid">
<mask height="23" width="46" y="0" x="33" maskUnits="userSpaceOnUse" style="mask-type:luminance" id="mask0_27234_81079">
<path fill="white" d="M33.1914 0H78.3593V22.5186H33.1914V0Z"></path>
</mask>
<g mask="url(#mask0_27234_81079)">
<mask height="23" width="46" y="0" x="33" maskUnits="userSpaceOnUse" style="mask-type:luminance" id="mask1_27234_81079">
<path fill="white" d="M78.2813 11.6631C77.1739 13.0151 75.771 14.4378 74.3992 15.5254C70.2222 18.8588 65.2626 21.2674 59.8561 22.4358L59.8358 6.27702C57.4272 5.66738 54.8965 5.39281 52.2947 5.39281C46.4814 5.39281 41.9286 6.98835 37.7821 9.28506C37.7008 9.33591 33.209 5.80975 33.209 5.80975C38.6053 2.30341 45.2927 0.108398 52.2947 0.108398C55.374 0.108398 58.3724 0.606179 61.2279 1.33785C61.2279 1.33785 63.3625 1.86665 65.0394 2.58815V15.1389C66.9294 14.2649 69.2769 12.7812 70.9335 11.5518C70.9233 11.5518 68.7181 4.34589 68.7181 4.34589L78.2813 11.6631Z"></path>
</mask>
<g mask="url(#mask1_27234_81079)">
<path fill="#191919" d="M-5.07812 -4.97302H100.354V67.9735H-5.07812V-4.97302Z"></path>
</g>
</g>
<mask height="24" width="38" y="0" x="18" maskUnits="userSpaceOnUse" style="mask-type:luminance" id="mask2_27234_81079">
<path fill="white" d="M18.4863 0H55.7141V23.2366H18.4863V0Z"></path>
</mask>
<g mask="url(#mask2_27234_81079)">
<mask height="24" width="38" y="0" x="18" maskUnits="userSpaceOnUse" style="mask-type:luminance" id="mask3_27234_81079">
<path fill="white" d="M55.6563 23.0048C54.7721 23.1472 53.0545 23.2082 52.272 23.2082C44.9953 23.2082 39.2024 21.6635 32.6274 17.2328C31.6924 16.6023 29.0702 14.692 28.8465 14.4886L23.8259 10.6472V15.8808L26.3565 17.9238L18.5821 23.015L18.5312 0.108398C18.5312 0.108398 36.1435 13.4926 36.5197 13.5739C41.1234 16.3384 46.5095 17.9339 52.272 17.9339C53.0443 17.9339 54.6399 17.9034 55.6156 17.7204C55.6258 17.8424 55.6665 23.0048 55.6665 23.0048"></path>
</mask>
<g mask="url(#mask3_27234_81079)">
<path fill="#191919" d="M-5.08008 -4.97314H100.352V67.9734H-5.08008V-4.97314Z"></path>
</g>
</g>
<mask height="16" width="16" y="48" x="63" maskUnits="userSpaceOnUse" style="mask-type:luminance" id="mask4_27234_81079">
<path fill="white" d="M63.1348 48.6819H78.3643V63.0001H63.1348V48.6819Z"></path>
</mask>
<g mask="url(#mask4_27234_81079)">
<mask height="15" width="16" y="48" x="63" maskUnits="userSpaceOnUse" style="mask-type:luminance" id="mask5_27234_81079">
<path fill="white" d="M72.5051 57.6602L70.757 52.4567H70.6355L68.9077 57.6602H72.5051ZM63.186 62.8633L64.4663 59.3982C65.7369 55.9935 67.302 52.1419 68.5619 48.7373H72.9424L78.2675 62.8735L74.1718 62.8531L73.4707 60.8412L67.9116 60.8107L67.2003 62.8735C67.2003 62.8735 64.5069 62.8735 63.1758 62.8735"></path>
</mask>
<g mask="url(#mask5_27234_81079)">
<path fill="#191919" d="M-5.07812 -4.97327H100.354V67.9733H-5.07812V-4.97327Z"></path>
</g>
</g>
<mask height="15" width="13" y="48" x="18" maskUnits="userSpaceOnUse" style="mask-type:luminance" id="mask6_27234_81079">
<path fill="white" d="M18.4863 48.6818H30.4617V63H18.4863V48.6818Z"></path>
</mask>
<g mask="url(#mask6_27234_81079)">
<mask height="15" width="13" y="48" x="18" maskUnits="userSpaceOnUse" style="mask-type:luminance" id="mask7_27234_81079">
<path fill="white" d="M25.1392 54.9669C26.1449 54.9262 26.7246 54.3776 26.7449 53.4527C26.7551 52.5685 26.1551 51.908 25.1595 51.8877H22.1103L22.1001 54.9669H25.1392ZM18.5332 62.8735V48.7678C18.5332 48.7678 23.7363 48.6966 26.1251 48.8288C28.7671 48.9707 30.444 50.9425 30.3728 53.6256C30.3118 56.1867 28.4828 58.0156 25.8607 58.097H22.578C22.1916 58.0868 22.1001 58.097 22.1001 58.097L22.1204 62.8938C20.9316 62.8531 19.7627 62.8735 18.5332 62.8735Z"></path>
</mask>
<g mask="url(#mask7_27234_81079)">
<path fill="#191919" d="M-5.08398 -4.97327H100.348V67.9733H-5.08398V-4.97327Z"></path>
</g>
</g>
<mask height="16" width="12" y="48" x="32" maskUnits="userSpaceOnUse" style="mask-type:luminance" id="mask8_27234_81079">
<path fill="white" d="M32.0215 48.6819H43.9968V63.0001H32.0215V48.6819Z"></path>
</mask>
<g mask="url(#mask8_27234_81079)">
<mask height="15" width="12" y="48" x="32" maskUnits="userSpaceOnUse" style="mask-type:luminance" id="mask9_27234_81079">
<path fill="white" d="M35.6729 59.7334H37.756C38.2238 59.7232 38.7725 59.7537 39.1787 59.7029L40.2765 58.9306C40.2867 57.4774 39.8092 56.8067 39.1482 56.7457C38.4877 56.6847 36.8515 56.7254 35.6729 56.7254V59.7334ZM32.1055 48.7883H35.6322V53.5038C35.8559 53.5139 38.3047 53.4834 39.3516 53.5343C41.1607 53.6156 42.6648 54.3168 43.4473 56.0344C44.2298 57.7519 44.1281 59.4893 43.0207 61.0651C42.2788 62.1216 41.1912 62.7211 39.9307 62.7821L33.7112 62.8736C33.1931 62.8838 32.6744 62.8736 32.1156 62.8736L32.1055 48.7883Z"></path>
</mask>
<g mask="url(#mask9_27234_81079)">
<path fill="#191919" d="M-5.08203 -4.97302H100.35V67.9735H-5.08203V-4.97302Z"></path>
</g>
</g>
<mask height="15" width="13" y="48" x="51" maskUnits="userSpaceOnUse" style="mask-type:luminance" id="mask10_27234_81079">
<path fill="white" d="M51.0605 48.6818H63.0024V63H51.0605V48.6818Z"></path>
</mask>
<g mask="url(#mask10_27234_81079)">
<mask height="15" width="12" y="48" x="51" maskUnits="userSpaceOnUse" style="mask-type:luminance" id="mask11_27234_81079">
<path fill="white" d="M57.7661 59.7229L54.7169 59.7432L54.7067 56.664C54.7067 56.664 57.3289 56.6538 57.756 56.664C58.7515 56.6945 59.3414 57.2533 59.3617 58.1782C59.382 59.0522 58.7617 59.6822 57.7661 59.7229ZM62.9896 57.7923L62.9693 57.6499L62.9489 57.4262C62.6037 55.1295 60.8759 53.6051 58.4876 53.5441C57.4 53.5136 54.8084 53.5339 54.7575 53.5339L54.7474 52.3243L62.0444 51.8672V48.7677C62.0444 48.7677 58.1927 48.7575 54.7474 48.7473C54.7474 48.7473 52.0444 48.7575 51.1602 48.7575V62.5382C51.1602 62.6399 51.1805 62.7309 51.1907 62.8326L51.302 62.8631L51.78 62.8733C52.5015 62.8835 52.9383 62.8835 53.4264 62.8835H54.2191C55.7841 62.8835 57.5933 62.8631 58.7515 62.8123L59.0058 62.792L59.3515 62.7309L59.4934 62.7106L59.5544 62.7004L59.7374 62.6501L59.8493 62.6298L60.1544 62.5382L60.4081 62.4365L60.764 62.2535L60.9878 62.101L61.2008 61.9586L61.4144 61.8066L61.6381 61.6032L61.8613 61.3795L62.1562 61.0037L62.3698 60.6885L62.5121 60.3834L62.6037 60.1602L62.6642 59.9873L62.7659 59.7534L62.8065 59.611L62.8574 59.4285L62.8777 59.3268L62.9184 59.1031L62.9387 58.9506L62.9693 58.676L62.9998 58.168L62.9794 57.833"></path>
</mask>
<g mask="url(#mask11_27234_81079)">
<path fill="#191919" d="M-5.07422 -4.97339H100.357V67.9731H-5.07422V-4.97339Z"></path>
</g>
</g>
<mask height="16" width="13" y="28" x="83" maskUnits="userSpaceOnUse" style="mask-type:luminance" id="mask12_27234_81079">
<path fill="white" d="M83.3066 28.9353H95.282V43.0847H83.3066V28.9353Z"></path>
</mask>
<g mask="url(#mask12_27234_81079)">
<mask height="16" width="13" y="28" x="83" maskUnits="userSpaceOnUse" style="mask-type:luminance" id="mask13_27234_81079">
<path fill="white" d="M91.6809 32.08H89.0994C88.7842 32.0902 88.4593 32.1207 88.1542 32.2021L87.0869 32.9541C87.1175 34.3462 87.5039 34.9767 88.1949 35.0377L91.6708 35.0682L91.6809 32.08ZM83.4082 43.0561L86.2332 37.8932C85.8778 37.6898 85.5422 37.5378 85.2478 37.3243C83.6624 36.1655 83.2252 34.5394 83.5302 32.6902C83.845 30.7997 84.9936 29.6206 86.8231 29.1432L87.8593 28.9601C90.5831 28.9398 95.1461 28.9601 95.2783 28.9703V43.0256H91.7114V38.3C91.1013 38.3 89.882 38.3102 89.882 38.3102C89.882 38.3102 88.2051 41.5928 87.5039 43.0663L83.4082 43.0561Z"></path>
</mask>
<g mask="url(#mask13_27234_81079)">
<path fill="#191919" d="M-5.08203 -4.97339H100.35V67.9731H-5.08203V-4.97339Z"></path>
</g>
</g>
<mask height="16" width="14" y="28" x="53" maskUnits="userSpaceOnUse" style="mask-type:luminance" id="mask14_27234_81079">
<path fill="white" d="M53.7598 28.9353H66.7765V43.0847H53.7598V28.9353Z"></path>
</mask>
<g mask="url(#mask14_27234_81079)">
<mask height="16" width="14" y="28" x="53" maskUnits="userSpaceOnUse" style="mask-type:luminance" id="mask15_27234_81079">
<path fill="white" d="M57.2943 34.225H63.1788V28.9706H66.7456V43.0157H63.1889V37.4262H57.3248V43.0361H53.7676V28.9706H57.2841L57.2943 34.225Z"></path>
</mask>
<g mask="url(#mask15_27234_81079)">
<path fill="#191919" d="M-5.07422 -4.97314H100.357V67.9734H-5.07422V-4.97314Z"></path>
</g>
</g>
<mask height="16" width="16" y="28" x="67" maskUnits="userSpaceOnUse" style="mask-type:luminance" id="mask16_27234_81079">
<path fill="white" d="M67.8184 28.9353H82.9177V43.0847H67.8184V28.9353Z"></path>
</mask>
<g mask="url(#mask16_27234_81079)">
<mask height="16" width="16" y="28" x="67" maskUnits="userSpaceOnUse" style="mask-type:luminance" id="mask17_27234_81079">
<path fill="white" d="M75.4426 32.6596H75.3206L73.5827 37.8525H77.1806C76.5908 36.084 76.0218 34.3766 75.4426 32.6697M78.9282 43.0459L78.166 41.0334H72.6374L71.9058 43.0764C71.9058 43.0764 69.1214 43.0662 67.8711 43.0662C68.2168 42.121 71.7939 32.5579 73.1154 28.9397H77.6377C79.3248 33.4726 82.9023 43.0662 82.9023 43.0662L78.9282 43.0459Z"></path>
</mask>
<g mask="url(#mask17_27234_81079)">
<path fill="#191919" d="M-5.07227 -4.97339H100.359V67.9731H-5.07227V-4.97339Z"></path>
</g>
</g>
<mask height="16" width="11" y="28" x="14" maskUnits="userSpaceOnUse" style="mask-type:luminance" id="mask18_27234_81079">
<path fill="white" d="M14.3203 28.9353H24.7337V43.0847H14.3203V28.9353Z"></path>
</mask>
<g mask="url(#mask18_27234_81079)">
<mask height="16" width="11" y="28" x="14" maskUnits="userSpaceOnUse" style="mask-type:luminance" id="mask19_27234_81079">
<path fill="white" d="M24.6374 28.9805V32.0394L17.9404 32.0597L17.9811 34.3259L23.8346 34.3463V37.487L17.9201 37.4565V39.9464L24.6171 39.9261V43.0256C24.6069 43.0358 24.5967 43.046 24.5866 43.0562L14.373 43.0663C14.3832 38.5334 14.373 33.5032 14.373 28.9703L14.4036 28.9398C17.9608 28.9602 24.4651 28.9703 24.6171 28.9907"></path>
</mask>
<g mask="url(#mask19_27234_81079)">
<path fill="#191919" d="M-5.08008 -4.97339H100.352V67.9731H-5.08008V-4.97339Z"></path>
</g>
</g>
<mask height="16" width="14" y="28" x="26" maskUnits="userSpaceOnUse" style="mask-type:luminance" id="mask20_27234_81079">
<path fill="white" d="M26.0332 28.6508H39.8309V43.3452H26.0332V28.6508Z"></path>
</mask>
<g mask="url(#mask20_27234_81079)">
<mask height="16" width="14" y="28" x="26" maskUnits="userSpaceOnUse" style="mask-type:luminance" id="mask21_27234_81079">
<path fill="white" d="M36.6866 38.0867L39.6642 39.4991C38.6986 41.8975 36.1578 43.5338 32.9362 43.2592C29.1049 42.9343 26.32 40.2512 26.0968 36.7047C25.8426 32.8627 27.9562 29.8445 31.5033 28.9705C35.0905 28.0863 38.424 29.4988 39.6947 32.4768L36.6662 33.9198C36.1985 32.9949 35.5176 32.3446 34.5521 32.0294C32.5909 31.4096 30.4767 32.67 29.8772 34.8142C29.1455 37.416 30.7513 39.8347 33.3633 40.0986C34.6537 40.2308 35.8227 39.5297 36.6764 38.0765"></path>
</mask>
<g mask="url(#mask21_27234_81079)">
<path fill="#191919" d="M-5.08398 -4.97327H100.348V67.9733H-5.08398V-4.97327Z"></path>
</g>
</g>
<mask height="16" width="12" y="28" x="0" maskUnits="userSpaceOnUse" style="mask-type:luminance" id="mask22_27234_81079">
<path fill="white" d="M0 28.9353H11.8452V43.0847H0V28.9353Z"></path>
</mask>
<g mask="url(#mask22_27234_81079)">
<mask height="16" width="12" y="28" x="0" maskUnits="userSpaceOnUse" style="mask-type:luminance" id="mask23_27234_81079">
<path fill="white" d="M8.27893 28.9601H11.8051V43.0154H8.27893V38.1067C6.52066 38.6859 4.87425 38.5435 3.72563 38.2593C1.82499 37.7813 0.41247 36.5926 0.158746 34.5902C-0.0649783 32.7506 0.0163761 28.9703 0.0163761 28.9703H3.59343C3.6036 29.1736 3.6036 32.019 3.62393 33.2591C3.64427 34.5394 4.27426 35.1999 5.53474 35.3117L5.83982 35.3321C7.48623 35.2914 8.24842 34.7123 8.25859 33.1879L8.26876 29.529L8.27893 28.9601Z"></path>
</mask>
<g mask="url(#mask23_27234_81079)">
<path fill="#191919" d="M-5.07617 -4.97339H100.356V67.9731H-5.07617V-4.97339Z"></path>
</g>
</g>
<mask height="16" width="13" y="28" x="40" maskUnits="userSpaceOnUse" style="mask-type:luminance" id="mask24_27234_81079">
<path fill="white" d="M40.5156 28.8966H52.0669V43.0846H40.5156V28.8966Z"></path>
</mask>
<g mask="url(#mask24_27234_81079)">
<mask height="16" width="12" y="28" x="40" maskUnits="userSpaceOnUse" style="mask-type:luminance" id="mask25_27234_81079">
<path fill="white" d="M48.0964 43.0259H44.5091C44.5091 42.8124 44.5091 42.6293 44.5091 42.4463L44.5397 32.06C44.5397 32.06 41.7141 32.0702 40.5762 32.0702V28.9401L51.9892 28.9299C51.9993 29.7836 51.9993 31.1555 51.9993 32.0498H48.0964V43.0259Z"></path>
</mask>
<g mask="url(#mask25_27234_81079)">
<path fill="#191919" d="M-5.07617 -4.97314H100.356V67.9734H-5.07617V-4.97314Z"></path>
</g>
</g>
<mask height="15" width="5" y="48" x="44" maskUnits="userSpaceOnUse" style="mask-type:luminance" id="mask26_27234_81079">
<path fill="white" d="M44.7598 48.7882H48.2555V62.843H44.7598V48.7882Z"></path>
</mask>
<g mask="url(#mask26_27234_81079)">
<path fill="#191919" d="M-5.08398 -4.97314H100.348V67.9734H-5.08398V-4.97314Z"></path>
</g>
</svg>