<svg width="340" height="29" viewBox="0 0 340 29" fill="none" xmlns="http://www.w3.org/2000/svg">
<g clip-path="url(#clip0_2001_28)">
<path d="M95.2905 0.540518H87.6728V1.58259C88.2598 1.64855 88.7544 1.74748 89.1568 1.90577C89.5525 2.05087 89.8757 2.28171 90.1065 2.58509C90.3439 2.88848 90.522 3.2974 90.6209 3.81184C90.7265 4.32628 90.7726 4.97923 90.766 5.76408V22.589H90.4956L75.9923 0.540518H69.3046V1.58259C69.6805 1.58259 70.0433 1.64855 70.4126 1.75407C70.782 1.8662 71.1183 2.05087 71.4217 2.30809C71.7251 2.56531 71.9691 2.92806 72.1472 3.37654C72.3319 3.83163 72.4242 4.39883 72.4308 5.09795V22.7341C72.4374 23.5189 72.3517 24.2048 72.1802 24.7655C72.0021 25.3327 71.6855 25.7746 71.2238 26.0779C70.7754 26.3879 70.129 26.5462 69.298 26.5594V27.6015H77.1465V26.5594C76.7838 26.5726 76.4276 26.5198 76.0583 26.4209C75.6955 26.3088 75.3658 26.1505 75.0624 25.9328C74.759 25.7152 74.5149 25.4382 74.3369 25.1018C74.1522 24.7655 74.0599 24.3763 74.0533 23.9344V4.41202H74.2841L89.8888 27.6147H92.3819V5.60579C92.3819 4.98582 92.4083 4.445 92.4743 3.98332C92.5402 3.52164 92.6655 3.12592 92.8634 2.79615C93.0612 2.47297 93.3514 2.20916 93.7406 2.01129C94.1297 1.81343 94.6441 1.66833 95.2905 1.58259V0.540518ZM141.597 6.4566L141.208 2.05087C140.265 1.50345 139.368 1.07475 138.537 0.784548C137.692 0.487754 136.927 0.283297 136.215 0.164579C135.509 0.0458619 134.896 -0.00690141 134.368 -0.000306C133.016 -0.000306 131.829 0.197556 130.813 0.566899C129.798 0.936242 128.953 1.43749 128.274 2.07725C127.595 2.71041 127.087 3.42271 126.751 4.22076C126.408 5.0254 126.243 5.85642 126.243 6.72701C126.243 7.70973 126.394 8.58692 126.691 9.34539C126.988 10.0973 127.423 10.77 127.991 11.3636C128.564 11.9572 129.257 12.498 130.075 12.9992C130.886 13.4939 131.816 13.9886 132.851 14.4634C133.715 14.8723 134.546 15.2351 135.338 15.5846C136.136 15.9276 136.875 16.2706 137.547 16.6267C138.227 16.9829 138.82 17.3786 139.328 17.8271C139.829 18.269 140.225 18.7966 140.509 19.3968C140.786 20.0036 140.931 20.7291 140.931 21.5733C140.931 22.3581 140.766 23.0572 140.443 23.6706C140.12 24.284 139.678 24.7984 139.11 25.2271C138.543 25.6492 137.884 25.9724 137.152 26.1967C136.413 26.4209 135.621 26.533 134.784 26.533C134.098 26.533 133.392 26.4341 132.673 26.2362C131.954 26.045 131.249 25.768 130.569 25.4052C129.877 25.0425 129.25 24.6072 128.67 24.1059C128.089 23.5981 127.595 23.0375 127.179 22.4109C126.77 21.7777 126.48 21.1116 126.315 20.3861H125.346L125.616 25.491C126.638 26.0252 127.661 26.4869 128.67 26.8892C129.686 27.2915 130.741 27.6015 131.829 27.8191C132.911 28.0434 134.078 28.1555 135.325 28.1621C136.637 28.1489 137.772 27.9642 138.741 27.6015C139.711 27.2387 140.528 26.7639 141.188 26.1703C141.848 25.5767 142.382 24.9303 142.777 24.2378C143.18 23.5387 143.47 22.8528 143.641 22.1735C143.82 21.4875 143.912 20.8874 143.905 20.3465C143.892 19.2055 143.694 18.2162 143.298 17.3918C142.909 16.5608 142.388 15.8551 141.742 15.2681C141.096 14.6811 140.383 14.1732 139.612 13.7445C138.84 13.3158 138.062 12.9201 137.29 12.5705C136.063 12.0297 134.936 11.5285 133.913 11.0536C132.884 10.5919 131.987 10.1039 131.229 9.60261C130.47 9.10136 129.877 8.53415 129.455 7.88121C129.033 7.23486 128.822 6.4632 128.815 5.56622C128.822 4.89349 128.953 4.31309 129.211 3.82503C129.461 3.33038 129.817 2.91487 130.266 2.59169C130.714 2.26192 131.235 2.01789 131.822 1.8596C132.409 1.70131 133.029 1.62216 133.689 1.62216C134.421 1.62216 135.153 1.74748 135.872 1.97832C136.604 2.20916 137.277 2.53893 137.917 2.96763C138.556 3.39633 139.11 3.91077 139.579 4.49117C140.047 5.08475 140.39 5.7377 140.608 6.4566H141.577H141.597ZM104.577 5.25624C104.57 4.47138 104.663 3.81184 104.841 3.27761C105.019 2.74998 105.316 2.34106 105.744 2.05746C106.166 1.78045 106.747 1.62216 107.479 1.58259V0.540518H98.5816V1.58259C99.3071 1.60897 99.8875 1.76067 100.316 2.05087C100.745 2.34106 101.042 2.74998 101.22 3.2908C101.398 3.82503 101.49 4.48457 101.484 5.25624V22.8924C101.49 23.664 101.398 24.3236 101.22 24.8578C101.048 25.392 100.745 25.8075 100.316 26.0977C99.8941 26.3879 99.3137 26.5396 98.5816 26.566V27.6081H107.479V26.566C106.753 26.5264 106.173 26.3681 105.744 26.0911C105.316 25.8075 105.019 25.3986 104.841 24.8644C104.663 24.3368 104.57 23.6772 104.577 22.8924V5.26283V5.25624ZM107.499 12.254L115.017 23.8553C115.136 24.0268 115.261 24.2444 115.4 24.495C115.532 24.7457 115.651 24.9897 115.749 25.2271C115.848 25.4646 115.895 25.6492 115.908 25.7877C115.908 25.8999 115.881 26.0054 115.815 26.1241C115.749 26.2494 115.611 26.3484 115.406 26.4341C115.195 26.5198 114.885 26.5594 114.47 26.566H113.883V27.6081H122.985V26.566C122.332 26.5792 121.751 26.4671 121.243 26.2428C120.736 26.0186 120.274 25.6888 119.852 25.2535C119.436 24.8182 119.027 24.284 118.645 23.6706L110.724 11.1789L117.339 4.56372C117.794 4.09544 118.276 3.65355 118.764 3.25123C119.265 2.84232 119.832 2.49935 120.478 2.20916C121.118 1.91236 121.883 1.7145 122.774 1.58919V0.540518H113.461V1.58259C113.903 1.64195 114.325 1.69471 114.734 1.74748C115.136 1.80024 115.466 1.89917 115.716 2.05746C115.974 2.21575 116.112 2.46638 116.119 2.81593C116.112 3.02699 116.013 3.27102 115.835 3.55462C115.657 3.83822 115.453 4.10863 115.228 4.37905C114.998 4.64286 114.8 4.85392 114.641 5.0188L107.505 12.2474L107.499 12.254ZM21.4879 14.0743C21.4417 17.3192 20.3402 20.5312 18.2033 22.4637C14.8792 25.4712 8.36958 26.9353 0 24.7061V26.1043C5.47419 27.7664 10.1767 28.3731 15.4728 27.0013C16.3698 26.7771 17.2602 26.4539 18.1374 26.045C20.5315 24.9633 22.3189 23.1364 23.4929 20.9401C24.0139 19.9706 24.4096 18.9351 24.6932 17.8535C25.5968 16.2376 28.3537 15.4923 30.0421 15.4923H32.5549V22.8924C32.5681 23.6245 32.4956 24.2708 32.3439 24.805C32.1988 25.3459 31.9152 25.768 31.4931 26.0648C31.071 26.3681 30.4642 26.533 29.653 26.5594V27.6015H38.5502V26.5594C37.8247 26.5132 37.2641 26.3615 36.8552 26.1043C36.4528 25.8405 36.1692 25.5239 35.9978 25.1414C35.8263 24.7655 35.7273 24.3763 35.6878 23.974C35.6548 23.5783 35.6416 23.2155 35.6482 22.8858V4.06247C35.635 3.54143 35.7603 3.13911 36.0043 2.8621C36.2484 2.59169 36.6837 2.40702 37.2905 2.30149C37.9104 2.20256 39.2097 2.16299 40.3046 2.16958C44.3146 2.11023 47.0846 4.17459 47.111 8.24396C47.1308 10.9547 45.759 12.7091 43.2131 13.705C42.2898 14.0677 41.6236 14.2524 40.3243 14.259L46.7219 23.8685C46.8472 24.0729 46.9857 24.2972 47.144 24.5148C47.2957 24.7391 47.4342 24.9633 47.5529 25.1876C47.665 25.4052 47.7244 25.6097 47.731 25.8075C47.731 26.0384 47.6255 26.2099 47.4408 26.3154C47.2627 26.4275 47.0253 26.5001 46.7549 26.533C46.4845 26.566 46.214 26.5858 45.9502 26.5792H45.449V27.6213H54.0758V26.5792C53.4756 26.5924 52.9414 26.4803 52.4797 26.256C52.018 26.0318 51.5893 25.702 51.2068 25.2667C50.8242 24.8314 50.4549 24.2972 50.0987 23.6838L44.7301 15.5121H48.8918C58.0462 15.5121 61.1461 19.3374 61.1197 27.6279H62.6894V0.540518H61.1197C61.1395 8.73202 58.1188 12.564 49.2281 12.6563C50.1449 11.5614 50.6725 10.15 50.6857 8.38906C50.7517 2.91487 46.4251 0.58009 41.2081 0.540518H29.6662V1.58259C30.3653 1.70791 30.9259 1.91236 31.348 2.18937C31.7701 2.47297 32.0801 2.8687 32.2779 3.36995C32.4758 3.8712 32.5747 4.51755 32.5681 5.29581V12.6563H30.0553C28.3669 12.6563 25.61 11.911 24.7064 10.2951C24.4228 9.21348 24.0205 8.178 23.506 7.20848C22.3321 5.01221 20.5447 3.18528 18.1506 2.10363C17.2734 1.69471 16.383 1.37813 15.486 1.1473C10.1767 -0.217955 5.47419 0.388823 0 2.05087V3.44909C8.36958 1.21984 14.8792 2.68403 18.2033 5.69153C20.3468 7.62399 21.4417 10.836 21.4879 14.0809V14.0743Z" fill="#1A1A18"/>
<path d="M147.658 27.0676H165.967V28.1558H147.658V27.0676ZM147.658 0H165.967V1.08824H147.658V0ZM157.729 16.9766C157.808 16.8908 157.881 16.8051 157.94 16.7194L159.325 11.8256C159.292 11.6607 159.246 11.5024 159.193 11.3573C159.134 11.199 159.061 11.0539 158.976 10.9154C158.89 10.7835 158.798 10.6582 158.692 10.5527C158.587 10.4471 158.474 10.3548 158.349 10.2822C158.23 10.2097 158.098 10.1503 157.96 10.1108C157.821 10.0712 157.683 10.0514 157.531 10.0514C157.353 10.0514 157.169 10.0844 156.99 10.1437C156.806 10.2031 156.621 10.2954 156.43 10.4142C156.239 10.5329 156.054 10.6846 155.876 10.856C155.698 11.0275 155.526 11.232 155.361 11.4562C155.197 11.6805 155.051 11.9245 154.919 12.1883C154.788 12.4587 154.669 12.7489 154.57 13.0589C154.471 13.3689 154.392 13.6921 154.339 14.0284C154.286 14.3714 154.26 14.7276 154.253 15.0969C154.253 15.2948 154.253 15.486 154.267 15.6773C154.273 15.862 154.293 16.0466 154.313 16.2247C154.333 16.4028 154.365 16.5611 154.405 16.7128C154.445 16.8645 154.491 17.003 154.55 17.1283C154.603 17.247 154.669 17.3591 154.741 17.4515C154.814 17.5438 154.906 17.6229 155.005 17.6955C155.104 17.7614 155.216 17.8142 155.348 17.8472C155.487 17.8802 155.638 17.8999 155.81 17.9065C155.975 17.9065 156.14 17.8868 156.285 17.8604C156.436 17.8274 156.582 17.7878 156.72 17.7285C156.859 17.6691 156.99 17.6031 157.103 17.524C157.221 17.4449 157.333 17.3657 157.439 17.28C157.544 17.1876 157.637 17.0953 157.729 17.003V16.9766ZM6.85913 4.47828C11.1593 4.27383 14.5098 5.39505 16.4884 7.1824C18.2494 8.7719 19.1464 11.4167 19.1925 14.0812C19.153 16.7457 18.2494 19.3905 16.4884 20.98C14.5098 22.7674 11.1659 23.8886 6.85913 23.6841C10.2096 23.5126 12.8346 22.4838 14.4966 20.98C16.2576 19.3905 17.1546 16.7457 17.2007 14.0812C17.1612 11.4167 16.2576 8.7719 14.4966 7.1824C12.8346 5.67865 10.2096 4.64976 6.85913 4.47828ZM160.348 9.35229H162.346L162.267 9.6227L160.545 15.3277C160.473 15.5718 160.407 15.7828 160.361 15.9543C160.315 16.1324 160.275 16.2907 160.242 16.4292C160.216 16.5611 160.189 16.6732 160.176 16.7721C160.163 16.8711 160.156 16.9502 160.156 17.0096C160.156 17.1349 160.169 17.247 160.183 17.3525C160.196 17.4515 160.222 17.5306 160.249 17.6031C160.282 17.6757 160.315 17.7417 160.354 17.7944C160.387 17.8472 160.427 17.8933 160.473 17.9263C160.512 17.9659 160.559 17.9923 160.605 18.0187C160.644 18.045 160.69 18.0648 160.737 18.078C160.776 18.0912 160.822 18.1044 160.855 18.111C160.888 18.111 160.915 18.1176 160.935 18.1176H160.941C161.06 18.1176 161.185 18.1044 161.324 18.0714C161.462 18.0384 161.614 17.9923 161.779 17.9263C161.937 17.8604 162.102 17.7746 162.273 17.6691C162.445 17.5636 162.616 17.4449 162.788 17.3064C162.959 17.1679 163.124 17.0096 163.289 16.8381C163.447 16.6666 163.606 16.4687 163.757 16.2511C163.902 16.04 164.041 15.8026 164.16 15.552C164.278 15.3014 164.384 15.0375 164.476 14.7407C164.569 14.4505 164.641 14.134 164.687 13.8042C164.733 13.4744 164.76 13.1183 164.76 12.7489C164.76 12.3004 164.72 11.8717 164.654 11.4562C164.588 11.0473 164.483 10.6582 164.351 10.2822C164.219 9.90631 164.054 9.55675 163.863 9.22698C163.672 8.89721 163.454 8.58722 163.21 8.29703C162.966 8.00023 162.695 7.73642 162.412 7.49239C162.122 7.24836 161.812 7.02411 161.475 6.81965C161.139 6.6152 160.789 6.44372 160.427 6.28543C160.057 6.13373 159.668 6.00182 159.266 5.8897C158.864 5.78417 158.448 5.70503 158.026 5.65227C157.604 5.5995 157.175 5.57312 156.72 5.57312C156.245 5.57312 155.783 5.61269 155.335 5.69184C154.887 5.77098 154.458 5.88311 154.042 6.0348C153.627 6.18649 153.238 6.36457 152.862 6.57562C152.486 6.78668 152.136 7.02411 151.8 7.28793C151.464 7.55834 151.154 7.84854 150.87 8.15852C150.586 8.46851 150.322 8.79828 150.085 9.15443C149.848 9.51058 149.637 9.87992 149.452 10.2625C149.267 10.645 149.116 11.0473 148.984 11.4628C148.858 11.8717 148.766 12.2938 148.7 12.7225C148.634 13.1512 148.601 13.5865 148.601 14.0284C148.601 14.378 148.621 14.721 148.667 15.0639C148.713 15.4135 148.773 15.763 148.858 16.106C148.944 16.449 149.05 16.7853 149.168 17.1217C149.294 17.4515 149.439 17.7746 149.597 18.0978C149.762 18.4144 149.947 18.7244 150.144 19.0146C150.342 19.3048 150.56 19.5884 150.804 19.8654C151.041 20.1358 151.292 20.3864 151.562 20.6238C151.833 20.8613 152.116 21.0789 152.42 21.2834C152.723 21.4813 153.04 21.6659 153.37 21.8242C153.706 21.9825 154.055 22.1144 154.412 22.2265C154.774 22.3387 155.15 22.4244 155.539 22.4838C155.935 22.5431 156.338 22.5695 156.76 22.5761C157.142 22.5761 157.511 22.5563 157.861 22.5167C158.204 22.4838 158.534 22.431 158.837 22.3584C159.141 22.2925 159.418 22.2133 159.681 22.1276C159.952 22.0419 160.202 21.9429 160.433 21.844C160.658 21.7385 160.869 21.6395 161.06 21.534C161.244 21.4351 161.409 21.3296 161.561 21.2306C161.713 21.1251 161.845 21.0328 161.957 20.947C162.062 20.8679 162.155 20.7887 162.221 20.7228L162.385 20.5645L162.531 20.7426L162.986 21.323L163.118 21.4944L162.946 21.6198C162.636 21.8506 162.333 22.0616 162.036 22.2397C161.733 22.4244 161.442 22.5959 161.152 22.7344C160.875 22.8729 160.598 22.9916 160.328 23.0971C160.051 23.2027 159.787 23.295 159.523 23.3675C159.266 23.4401 159.015 23.4994 158.778 23.5456C158.54 23.5918 158.303 23.6248 158.072 23.6511C157.848 23.6709 157.63 23.6907 157.426 23.7039C157.221 23.7171 157.017 23.7171 156.826 23.7171C156.324 23.7171 155.843 23.6841 155.381 23.6182C154.913 23.5522 154.464 23.4533 154.029 23.328C153.6 23.2027 153.185 23.0444 152.789 22.8663C152.393 22.6882 152.018 22.4838 151.655 22.2463C151.299 22.0155 150.956 21.7649 150.639 21.4944C150.322 21.224 150.026 20.9338 149.742 20.6238C149.472 20.3205 149.214 19.9973 148.977 19.6609C148.74 19.3246 148.529 18.975 148.337 18.6122C148.146 18.2561 147.975 17.8868 147.836 17.5108C147.691 17.1349 147.566 16.7457 147.467 16.3566C147.368 15.9675 147.295 15.5718 147.242 15.176C147.19 14.7803 147.163 14.3912 147.163 14.0021C147.163 13.6129 147.19 13.2436 147.236 12.8676C147.282 12.4917 147.355 12.1092 147.447 11.7266C147.539 11.3441 147.658 10.9748 147.796 10.6054C147.935 10.2361 148.093 9.87333 148.271 9.51718C148.449 9.16762 148.654 8.81806 148.885 8.48829C149.109 8.15852 149.36 7.83535 149.623 7.52536C149.894 7.21538 150.184 6.92518 150.494 6.65477C150.804 6.38436 151.134 6.13373 151.49 5.90289C151.846 5.67205 152.215 5.461 152.611 5.28292C153.007 5.09825 153.416 4.94656 153.851 4.81465C154.286 4.68274 154.735 4.59041 155.21 4.51786C155.678 4.4519 156.166 4.41892 156.674 4.41892C157.175 4.41892 157.67 4.4519 158.158 4.51126C158.646 4.57721 159.121 4.66955 159.576 4.79486C160.038 4.92018 160.479 5.07187 160.902 5.25654C161.324 5.43462 161.726 5.64567 162.108 5.88311C162.491 6.12054 162.854 6.38436 163.19 6.67455C163.52 6.96475 163.83 7.27474 164.113 7.6111C164.397 7.95406 164.648 8.31681 164.872 8.69935C165.09 9.08188 165.281 9.4908 165.433 9.9195C165.591 10.3482 165.71 10.7967 165.782 11.265C165.861 11.7332 165.901 12.2147 165.901 12.7225C165.901 13.1974 165.868 13.6591 165.795 14.0944C165.729 14.5297 165.624 14.9452 165.492 15.3409C165.36 15.7366 165.202 16.106 165.017 16.449C164.832 16.7919 164.621 17.1085 164.384 17.3987C164.146 17.6889 163.889 17.9461 163.619 18.1704C163.342 18.3946 163.052 18.5925 162.742 18.7508C162.432 18.909 162.108 19.0278 161.772 19.1135C161.436 19.1926 161.093 19.2388 160.737 19.2388C160.539 19.2388 160.354 19.2256 160.189 19.1992C160.018 19.1729 159.853 19.1333 159.701 19.0871C159.556 19.0344 159.418 18.9816 159.292 18.9222C159.167 18.8629 159.048 18.7903 158.936 18.7112C158.831 18.6386 158.738 18.5595 158.652 18.4869C158.567 18.4078 158.488 18.3286 158.422 18.2495C158.356 18.177 158.296 18.1044 158.25 18.0319C158.158 18.0912 158.072 18.1572 157.98 18.2165C157.828 18.3155 157.676 18.4078 157.518 18.4935C157.36 18.5793 157.195 18.6584 157.03 18.7244C156.865 18.7903 156.694 18.8431 156.516 18.8893C156.344 18.9354 156.159 18.975 155.968 18.9948C155.777 19.0212 155.579 19.0278 155.375 19.0278C155.098 19.0278 154.834 18.9948 154.59 18.942C154.339 18.8893 154.102 18.8101 153.884 18.7046C153.666 18.5991 153.462 18.4737 153.277 18.3286C153.093 18.1835 152.921 18.0121 152.769 17.8274C152.618 17.6361 152.479 17.4317 152.367 17.214C152.255 16.9964 152.156 16.7655 152.077 16.5149C151.998 16.2643 151.938 16.0071 151.899 15.7432C151.859 15.4728 151.839 15.1958 151.839 14.9056C151.839 14.4967 151.879 14.1076 151.952 13.7316C152.024 13.3491 152.136 12.9798 152.281 12.6236C152.426 12.2675 152.598 11.9311 152.802 11.6145C153.007 11.2979 153.238 11.0011 153.501 10.7241C153.759 10.4537 154.042 10.2031 154.346 9.99205C154.649 9.7744 154.972 9.58973 155.322 9.43803C155.671 9.27974 156.034 9.16103 156.41 9.08188C156.786 9.00274 157.175 8.96316 157.577 8.95657C157.657 8.95657 157.736 8.95657 157.821 8.96316C157.901 8.96316 157.993 8.97635 158.098 8.98954C158.197 9.00274 158.31 9.02912 158.422 9.0555C158.534 9.08848 158.646 9.12805 158.765 9.17422C158.883 9.22038 159.002 9.27974 159.127 9.35229C159.246 9.42484 159.371 9.50399 159.497 9.60292C159.622 9.70185 159.747 9.82057 159.866 9.94588C159.906 9.98545 159.939 10.025 159.972 10.0646L160.163 9.46441L160.209 9.31931H160.361L160.348 9.35229Z" fill="#AA0734"/>
<path d="M237.962 0.540827H230.345V1.5829C230.932 1.64886 231.426 1.74779 231.829 1.90608C232.224 2.05118 232.548 2.28202 232.778 2.5854C233.016 2.88879 233.194 3.29771 233.293 3.81215C233.398 4.32659 233.445 4.97954 233.438 5.76439V22.5893H233.168L218.664 0.540827H211.977V1.5829C212.352 1.5829 212.715 1.64886 213.085 1.75438C213.454 1.8665 213.784 2.05118 214.094 2.3084C214.397 2.56562 214.641 2.92837 214.819 3.37685C215.004 3.83194 215.096 4.39914 215.103 5.09826V22.7344C215.109 23.5192 215.024 24.2052 214.852 24.7658C214.674 25.333 214.357 25.7683 213.896 26.0783C213.447 26.3882 212.801 26.5465 211.97 26.5597V27.6018H219.818V26.5597C219.456 26.5729 219.1 26.5201 218.73 26.4212C218.367 26.3091 218.038 26.1508 217.734 25.9332C217.431 25.7155 217.187 25.4385 217.009 25.1021C216.824 24.7658 216.732 24.3766 216.725 23.9347V4.41233H216.956L232.561 27.615H235.054V5.6061C235.047 4.98613 235.08 4.44531 235.146 3.98363C235.212 3.52195 235.337 3.12623 235.535 2.79646C235.733 2.47328 236.023 2.20947 236.413 2.0116C236.802 1.81374 237.316 1.66864 237.962 1.5829V0.540827ZM199.142 0.540827V1.5829C199.834 1.61588 200.375 1.75438 200.771 1.99841C201.167 2.24244 201.457 2.54583 201.635 2.91517C201.813 3.28452 201.932 3.66705 201.984 4.08256C202.031 4.49807 202.05 4.8872 202.044 5.26314V22.8993C202.044 23.2752 202.031 23.6643 201.984 24.0798C201.932 24.4954 201.82 24.8779 201.635 25.2472C201.457 25.6166 201.167 25.92 200.771 26.1574C200.369 26.4014 199.828 26.5465 199.142 26.5729V27.615H208.032V26.5729C207.307 26.5267 206.746 26.375 206.337 26.1178C205.935 25.854 205.652 25.5374 205.48 25.1549C205.309 24.779 205.21 24.3898 205.17 23.9875C205.137 23.5852 205.124 23.229 205.13 22.8993V5.26314C205.13 4.93337 205.137 4.57722 205.17 4.1749C205.21 3.77258 205.309 3.38345 205.48 3.00751C205.652 2.62498 205.935 2.3018 206.337 2.04458C206.746 1.78736 207.307 1.63566 208.032 1.5895V0.540827H199.135H199.142ZM178.379 4.94656C178.373 4.62339 178.386 4.30681 178.419 3.99023C178.459 3.68024 178.544 3.39004 178.683 3.13282C178.821 2.86901 179.059 2.65136 179.375 2.47988C179.699 2.3084 180.134 2.19627 180.701 2.1567C181.433 2.11713 182.172 2.11713 182.904 2.1567C183.623 2.18308 184.388 2.25563 185.186 2.37435C185.977 2.50626 186.775 2.71072 187.573 3.01411C188.365 3.3109 189.123 3.73301 189.836 4.29362C190.555 4.84763 191.181 5.56653 191.735 6.45691C192.296 7.34729 192.731 8.44213 193.048 9.73483C193.371 11.0341 193.529 12.584 193.536 14.378C193.536 17.1217 193.081 19.3575 192.157 21.0591C191.241 22.7674 189.882 24.0205 188.081 24.8119C186.274 25.5968 184.045 25.9925 181.394 25.9793C180.615 25.9859 180.002 25.9266 179.567 25.8012C179.125 25.6627 178.821 25.4121 178.637 25.0296C178.459 24.6471 178.373 24.093 178.379 23.3544V4.95316V4.94656ZM183.023 0.540827H172.391V1.5829C173.116 1.62247 173.697 1.78076 174.125 2.05777C174.554 2.34137 174.851 2.75029 175.029 3.27792C175.207 3.81215 175.299 4.47169 175.293 5.25655V22.8927C175.293 23.6248 175.214 24.2645 175.049 24.7987C174.884 25.333 174.587 25.7485 174.158 26.0519C173.736 26.3553 173.149 26.5267 172.391 26.5663V27.6084H182.911C184.962 27.6084 186.736 27.371 188.246 26.9225C189.75 26.4806 191.023 25.8738 192.072 25.1021C193.107 24.3305 193.964 23.4401 194.631 22.4376C195.297 21.4351 195.811 20.3732 196.181 19.252C196.51 18.3023 196.741 17.3327 196.886 16.3368C197.038 15.3475 197.104 14.3384 197.104 13.3359C197.097 11.7662 196.919 10.368 196.57 9.15443C196.22 7.94088 195.745 6.88561 195.132 5.97544C194.525 5.07187 193.826 4.30681 193.034 3.66705C192.25 3.03389 191.412 2.51285 190.528 2.10394C189.651 1.69502 188.761 1.37844 187.864 1.1476C186.967 0.916765 186.103 0.75188 185.278 0.66614C184.447 0.573804 183.702 0.527636 183.023 0.534231V0.540827ZM267.431 0.540827H259.813V1.5829C260.4 1.64886 260.895 1.74779 261.297 1.90608C261.693 2.05118 262.016 2.28202 262.247 2.5854C262.484 2.88879 262.662 3.29771 262.761 3.81215C262.867 4.32659 262.913 4.97954 262.906 5.76439V22.5893H262.636L248.133 0.540827H241.445V1.5829C241.821 1.5829 242.184 1.64886 242.553 1.75438C242.922 1.8665 243.259 2.05118 243.562 2.3084C243.865 2.56562 244.109 2.92837 244.287 3.37685C244.472 3.83194 244.564 4.39914 244.571 5.09826V22.7344C244.578 23.5192 244.492 24.2052 244.32 24.7658C244.142 25.333 243.826 25.7683 243.364 26.0783C242.916 26.3882 242.269 26.5465 241.438 26.5597V27.6018H249.287V26.5597C248.924 26.5729 248.568 26.5201 248.199 26.4212C247.836 26.3091 247.506 26.1508 247.203 25.9332C246.899 25.7155 246.655 25.4385 246.477 25.1021C246.292 24.7658 246.2 24.3766 246.194 23.9347V4.41233H246.424L262.029 27.615H264.522V5.6061C264.522 4.98613 264.549 4.44531 264.614 3.98363C264.68 3.52195 264.806 3.12623 265.004 2.79646C265.201 2.47328 265.492 2.20947 265.881 2.0116C266.27 1.81374 266.784 1.66864 267.431 1.5829V0.540827ZM337.678 6.45691L337.289 2.05118C336.346 1.50376 335.449 1.07506 334.612 0.778262C333.767 0.481468 333.002 0.27701 332.29 0.158293C331.584 0.0395757 330.971 -0.00659219 330.443 3.22051e-06C329.091 3.22051e-06 327.904 0.197866 326.895 0.567209C325.879 0.936551 325.035 1.4378 324.356 2.07756C323.676 2.71072 323.169 3.42302 322.832 4.22107C322.489 5.02571 322.324 5.85673 322.324 6.72732C322.324 7.71004 322.476 8.58723 322.773 9.3457C323.07 10.0976 323.505 10.7703 324.072 11.3639C324.646 11.9575 325.338 12.4983 326.156 12.9996C326.967 13.4942 327.897 13.9889 328.933 14.4637C329.797 14.8727 330.628 15.2354 331.419 15.585C332.217 15.9279 332.956 16.2775 333.629 16.627C334.308 16.9832 334.902 17.3789 335.41 17.8274C335.911 18.2693 336.307 18.7969 336.59 19.3971C336.867 20.0039 337.006 20.7294 337.019 21.5736C337.012 22.3584 336.854 23.0576 336.531 23.6709C336.208 24.2843 335.766 24.7987 335.199 25.2274C334.631 25.6496 333.972 25.9727 333.24 26.197C332.501 26.4212 331.71 26.5333 330.872 26.5333C330.186 26.5333 329.48 26.4344 328.761 26.2365C328.043 26.0453 327.337 25.7683 326.651 25.4055C325.958 25.0428 325.332 24.6075 324.751 24.0996C324.171 23.5918 323.676 23.0312 323.261 22.4046C322.852 21.7715 322.562 21.1053 322.397 20.3798H321.427L321.698 25.4847C322.72 26.0189 323.742 26.4806 324.751 26.8829C325.767 27.2852 326.822 27.5886 327.911 27.8128C328.992 28.0371 330.16 28.1492 331.406 28.1558C332.719 28.1426 333.853 27.9579 334.823 27.5952C335.792 27.2325 336.61 26.7576 337.27 26.164C337.929 25.5704 338.463 24.9241 338.859 24.2315C339.261 23.5324 339.552 22.8465 339.723 22.1672C339.901 21.4813 339.993 20.8811 339.987 20.3402C339.974 19.1992 339.776 18.2165 339.38 17.3855C338.991 16.5545 338.47 15.8488 337.83 15.2618C337.184 14.6748 336.471 14.1669 335.693 13.7382C334.922 13.3029 334.15 12.9138 333.372 12.5643C332.145 12.0234 331.017 11.5222 329.995 11.0473C328.966 10.5856 328.069 10.0976 327.31 9.59632C326.552 9.09507 325.958 8.52787 325.536 7.87492C325.114 7.22857 324.903 6.45691 324.897 5.55993C324.897 4.8872 325.028 4.30681 325.292 3.81875C325.543 3.32409 325.899 2.90858 326.348 2.5854C326.803 2.25563 327.317 2.0116 327.904 1.85331C328.491 1.69502 329.111 1.61588 329.771 1.61588C330.503 1.61588 331.235 1.74119 331.954 1.97203C332.686 2.20287 333.358 2.53264 333.998 2.95475C334.638 3.39004 335.192 3.89789 335.66 4.48488C336.129 5.07847 336.471 5.73141 336.689 6.45031H337.659L337.678 6.45691ZM276.869 12.927C278.775 12.8742 280.569 12.8215 281.446 12.7555C284.038 12.5775 284.44 12.5445 284.942 12.4719C285.443 12.3994 285.581 11.4496 284.942 11.3441C284.605 11.2913 280.608 11.2848 276.869 11.2848V12.927ZM276.869 14.7144C280.688 14.6484 284.698 14.5956 285.008 14.5825C285.66 14.5627 285.66 13.5865 285.008 13.5668C284.698 13.5602 280.688 13.5074 276.869 13.4349V14.7078V14.7144ZM276.869 16.8711C280.608 16.8711 284.605 16.8711 284.942 16.8117C285.581 16.7062 285.443 15.7498 284.942 15.6839C284.434 15.6113 284.031 15.5784 281.446 15.4003C280.569 15.3409 278.781 15.2816 276.869 15.2288V16.8711ZM310.387 15.2948L310.466 15.2354L310.36 15.2618L310.387 15.3014V15.2948ZM322.905 14.0746C321.256 16.6468 316.461 16.7326 311.02 16.2511L315.887 23.6577C316.243 24.2777 316.613 24.8053 316.995 25.2406C317.384 25.6759 317.806 26.0057 318.268 26.2299C318.73 26.4542 319.264 26.5663 319.864 26.5531V27.5952H311.237V26.5531H311.739C312.003 26.5531 312.273 26.5399 312.543 26.507C312.814 26.474 313.045 26.3948 313.229 26.2893C313.414 26.1772 313.513 26.0123 313.519 25.7815C313.519 25.5902 313.454 25.3791 313.341 25.1615C313.229 24.9438 313.091 24.7196 312.932 24.4888C312.781 24.2711 312.636 24.0535 312.51 23.8424L306.113 14.2329C309.661 14.2131 312.932 12.0894 312.9 8.21788C312.873 4.14852 310.103 2.09075 306.093 2.14351C304.998 2.14351 303.699 2.18308 303.079 2.27542C302.466 2.38095 302.037 2.56562 301.793 2.83603C301.549 3.11304 301.423 3.51536 301.437 4.03639V22.8663C301.437 23.1961 301.443 23.5588 301.476 23.9545C301.516 24.3569 301.615 24.746 301.786 25.1219C301.958 25.5045 302.241 25.8144 302.644 26.0849C303.053 26.3421 303.613 26.5004 304.339 26.5399V27.582H295.441V26.5399C296.246 26.5136 296.859 26.3487 297.282 26.0453C297.704 25.7419 297.987 25.3264 298.132 24.7856C298.284 24.2513 298.357 23.605 298.343 22.8729V15.0046C295.751 14.899 293.522 15.0507 292.005 15.7367C289.987 16.5875 289.36 17.1085 289.182 17.6889C289.064 18.0846 281.505 17.7812 276.856 17.5372V23.4929C276.856 24.126 276.941 24.6141 277.1 24.957C277.258 25.3066 277.502 25.544 277.819 25.6891C278.142 25.8342 278.537 25.9134 279.006 25.9398C279.474 25.9661 280.021 25.9727 280.641 25.9661H283.583C284.625 25.9727 285.575 25.8606 286.432 25.6232C287.29 25.3923 288.061 24.99 288.754 24.4228C289.446 23.8556 290.066 23.0839 290.62 22.0946H291.59L290.699 27.5886H270.9V26.5465C271.612 26.507 272.173 26.3619 272.569 26.098C272.971 25.8408 273.254 25.5176 273.419 25.1285C273.584 24.746 273.69 24.3569 273.723 23.9545C273.756 23.5456 273.769 23.1895 273.762 22.8729V17.3525C273.597 17.3393 273.472 17.3327 273.393 17.3261C272.285 17.2206 271.474 17.1349 270.9 17.0689V16.8315C271.52 16.8315 272.542 16.8381 273.762 16.8447V15.1299C272.602 15.0969 271.579 15.0639 270.9 15.0309V14.8331C271.599 14.8067 272.608 14.7803 273.762 14.7539V13.3557C272.608 13.3293 271.606 13.3029 270.9 13.2766V13.0787C271.579 13.0457 272.602 13.0127 273.762 12.9798V11.265C272.549 11.265 271.526 11.2716 270.9 11.2782V11.0407C271.48 10.9748 272.285 10.889 273.393 10.7835C273.472 10.7769 273.597 10.7637 273.762 10.7571V5.30271C273.762 4.98613 273.762 4.62339 273.723 4.22107C273.69 3.81875 273.584 3.42962 273.419 3.04708C273.254 2.65795 272.971 2.34137 272.569 2.07756C272.173 1.81374 271.612 1.66864 270.9 1.62907V0.586995H290.699L291.59 6.08097H290.62C290.066 5.09166 289.446 4.32 288.754 3.75279C288.061 3.18559 287.29 2.78327 286.432 2.55243C285.575 2.31499 284.625 2.20287 283.583 2.20947H280.641C280.021 2.20947 279.474 2.20947 279.006 2.23585C278.537 2.26223 278.142 2.34797 277.819 2.48647C277.495 2.63157 277.258 2.8756 277.1 3.21856C276.941 3.56152 276.856 4.04958 276.856 4.68274V10.5988C281.505 10.3548 289.057 10.0514 289.182 10.4471C289.36 11.0275 289.987 11.5486 292.005 12.3994C293.522 13.0853 295.758 13.237 298.343 13.1315V5.29612C298.343 4.51786 298.251 3.87151 298.053 3.37026C297.862 2.86901 297.552 2.47328 297.123 2.18968C296.701 1.91267 296.134 1.70821 295.441 1.5829V0.540827H306.983C312.194 0.580399 316.52 2.91517 316.461 8.38937C316.454 9.66228 316.177 10.7505 315.676 11.6673C319.053 11.6937 321.744 12.2741 322.898 14.0746H322.905Z" fill="#1A1A18"/>
</g>
<defs>
<clipPath id="clip0_2001_28">
<rect width="340" height="28.1558" fill="white"/>
</clipPath>
</defs>
</svg>
