<?xml version="1.0" encoding="utf-8"?>
<!-- Generator: Adobe Illustrator 18.1.1, SVG Export Plug-In . SVG Version: 6.00 Build 0)  -->
<!DOCTYPE svg PUBLIC "-//W3C//DTD SVG 1.1//EN" "http://www.w3.org/Graphics/SVG/1.1/DTD/svg11.dtd" [
	<!ENTITY st0 "fill:#010101;">
]><svg version="1.1" id="Layer_1" xmlns="http://www.w3.org/2000/svg" xmlns:xlink="http://www.w3.org/1999/xlink" x="0px" y="0px"
	 viewBox="0 0 220 31.7" style="enable-background:new 0 0 220 31.7;" xml:space="preserve">
<g>
	<path style="&st0;" d="M142.6,15.2c-2.7,5-7.9-0.3-7.4-4.4c0.2-1.5,1.1-3.1,1.9-4.4c0.4-0.6,1-1.7,1.7-2.1c0.5-0.2,0.1-0.3,0.6,0.7
		c1.1,2.2,4.5,0.3,3.4-2c-3-6-7.8-1.1-10.1,3.6c-1.5-4.2-5-7.2-10.8-5.9c-2.4,0.6-1.4,4.3,1,3.8c9.4-2.2,8.8,16.2,0.5,12.5
		c-2.3-1-4.3,2.3-2,3.4c5.9,2.6,9.7-0.2,11.3-4.4c2.8,5.2,9.9,7.9,13.5,1.2C147.1,15,143.8,13,142.6,15.2z"/>
	<path style="&st0;" d="M165.2,2.1c-1.4,3.6-3.1,7.1-5,10.4c-2.9-3-4.5-7-6.3-10.7c-1.1-2.2-4.5-0.3-3.4,2c2.1,4.3,4,9,7.7,12.2
		c-0.9,1.5-1.9,2.9-2.9,4.4c-0.7,1-3.6,6.1-5.4,7.1c-0.3-0.7-1-0.6-1.8-0.6c-0.4,0-0.7,0-1.1,0c-1.5,0-2.4,1.1-1.7,2.4
		c6.4,11.8,22.3-22.6,23.6-25.8C169.9,1.1,166.1-0.2,165.2,2.1z"/>
	<path style="&st0;" d="M7.7,0.7C7.3,0.4,6.8,0.3,6.2,0.4C6,0.5,5.8,0.5,5.7,0.6c-0.6,0-1.2,0-1.8,0.1c-1.4,0.2-2,1.6-1.8,2.7
		C-0.4,7-0.7,12.9,1.4,16.1c3.3,5.3,10.8,5.3,15.7,2.5c4.7-2.7,6.5-8.4,2.5-12.5C16.8,3.2,12.1,1.2,7.7,0.7z M17,13.8
		c-2.1,2.5-6.9,3.6-9.8,2.4c-2.3-0.9-3.3-2.9-3.3-5.3c0-1.8,0.7-5,2.4-6.2C11.7,5.2,21.2,8.6,17,13.8z"/>
	<path style="&st0;" d="M91.8,16.5c-3.2,0.2-7.7,0.1-9.4-3.1c-2-3.6,0.2-9.6,4.8-8.8c2.4,0.4,3.5-3.4,1-3.8
		c-6.2-1-10.3,3.6-10.4,9.3c-0.1,0.1-0.2,0.1-0.4,0.2c-0.7,0.5-1.4,1.1-2.1,1.6c0.1-2.8,0.5-5.6,0.7-8.4c0.2-2.5-3.7-2.5-3.9,0
		c-0.2,2-1.4,3.8-2.9,5.1c-1.6-5-8.4-10.5-13.2-7.4c-2.1,1.4-0.1,4.7,2,3.4c2.9-1.9,7.6,3.4,7.7,6.1c0.3,4.7-5.5,6.5-9.3,6
		c-2.4-0.4-3.5,3.4-1,3.8c5.5,0.8,12.5-1.6,13.9-7.2c0.1,0,0.3-0.1,0.4-0.2c0.6-0.4,1.2-0.8,1.8-1.2c-0.1,1.9-0.1,3.7,0,5.6
		c0.1,1.8,2.7,2.9,3.6,1c0.8-1.7,2-3,3.4-4.1c2,5,8.1,6.4,13.2,6.1C94.3,20.3,94.3,16.4,91.8,16.5z"/>
	<path style="&st0;" d="M47.5,12c-0.9,0-1.7,0-2.6,0c-0.3-3,0.4-6,0.4-9c0-1.1-0.9-1.8-1.9-1.9c-3.9-0.4-7.5-1.6-10.8,0.6
		c-0.8,0.2-1.5,0.8-1.5,1.8c0,3.1,0,6.2-0.4,9.2c-1.1,0-2.2,0-3.3,0c-1.4,0-2.1,1.3-1.9,2.5c0.4,2.4,0.4,4.9,0.7,7.3
		c0.3,2.5,4.2,2.5,3.9,0c-0.2-2-0.3-3.9-0.5-5.8c5.4-0.1,10.7-0.8,16.1-0.8c0.1,1.7,0.2,3.4-0.5,4.7c-1.2,2.2,2.1,4.2,3.4,2
		c1.5-2.7,0.9-5.7,0.9-8.6C49.4,12.9,48.5,12.1,47.5,12z M41,12.2c-2.2,0.1-4.3,0.3-6.5,0.4c0.3-2.6,0.4-5.2,0.4-7.8
		c1.8-1.1,4.2-0.6,6.4-0.1C41.2,7.2,40.9,9.7,41,12.2z"/>
	<path style="&st0;" d="M111.1,1.9c-3.7-3.6-9.2-1.8-11.4,2.4c-1.2,2.2,2.2,4.2,3.4,2c2.1-3.8,5.8-2.7,6.9,1.2
		c0.3,1.1,0.4,2.2,0.5,3.3c-4.3-1.4-10.1-2.4-11.5,2.9c-0.7,2.5,1,5.1,3.1,6.3c2.8,1.6,5.6,0.6,8.5-0.2c0.9,1.4,3.6,1.1,3.6-1
		c0-1.3,0.1-2.7,0.2-4.1c0.2-0.5,0.3-1.2,0.1-1.7C114.4,8.9,114,4.8,111.1,1.9z M110.4,15.8C110.3,15.8,110.3,15.8,110.4,15.8
		c-1.7,0.4-3.8,1.6-5.6,1.1c-1.3-0.3-3-2-1.4-3.1c1.8-1.1,4.7,0,7,1C110.4,15.1,110.4,15.5,110.4,15.8z"/>
	<path style="&st0;" d="M178.2,1.6c-0.6-1.9-3.9-1.8-3.8,0.5c0.1,5.1,0.1,10.2-0.3,15.2c-0.3,4-0.7,7.9-0.2,11.9
		c0.3,2.5,4.1,1.4,3.8-1c-0.4-2.7-0.2-5.4,0.1-8.2c3.8,0.9,7.8,1.1,10.5-2.3c2.4-3.1,3.1-8.1,1.1-11.5
		C187.3,2.7,181.9,0.3,178.2,1.6z M185.3,15.3c-1.8,2.4-4.8,1.6-7.2,0.9c0.2-3.1,0.2-6.2,0.2-9.3c1.1-3.7,6.3-1,7.7,1.4
		C187.1,10.3,186.7,13.5,185.3,15.3z"/>
	<path style="&st0;" d="M217,16.4c-3.6,1.7-3.7-2.6-3.8-5.2c-0.2-3.1,0.1-6.3-0.2-9.4c-0.3-2.5-4.2-2.5-3.9,0
		c0.3,2.5,0.1,7,0.5,10.9c-0.1,0-0.2,0.1-0.3,0.1c-2,1.3-6.6,5.3-9.1,3.8c-2.1-1.3-1.8-5-1.6-7.1c0.3-2.8,0.7-5.3-0.1-8.1
		c-0.7-2.4-4.4-1.4-3.8,1c1.6,5.4-2.9,14.3,3.9,17.7c4,2,8.4-1.2,11.8-3.4c1.2,3.4,3.6,5.3,8.5,2.9C221.3,18.7,219.3,15.3,217,16.4z
		"/>
</g>
</svg>
