<svg width="87" height="39" viewBox="0 0 106 48" fill="none" xmlns="http://www.w3.org/2000/svg"><path fill-rule="evenodd" clip-rule="evenodd" d="M32.009 10.1049C30.7465 9.83411 29.5297 9.72972 28.2444 9.73298C27.0733 9.73298 25.4454 9.77213 24.8745 9.75582C24.0949 9.75582 23.6479 10.3691 23.6479 11.1488V37.85C23.6479 38.6264 24.0949 39.2658 24.8745 39.2658H26.5513C27.3342 39.2658 27.7779 38.6297 27.7779 37.85V29.2247C36.0052 29.2965 40.0177 25.708 40.0177 19.4348C40.0177 14.1207 36.6576 11.1096 32.009 10.1049ZM27.7746 25.5939V15.6441C27.7746 14.5611 26.9917 13.8629 25.9837 13.6183C25.8663 13.5889 25.8695 13.3932 25.9837 13.3736H29.1285C32.6614 13.3736 35.8454 14.809 35.9106 19.4413C35.9824 24.4553 32.2439 25.9266 27.7746 25.5906V25.5939Z" fill="black"></path><path fill-rule="evenodd" clip-rule="evenodd" d="M17.6681 9.71339H15.9881C15.215 9.71339 14.7648 10.3495 14.7648 11.1292V17.3046C14.7648 17.5101 14.7974 19.9828 14.6767 21.888C14.6539 22.2599 14.4973 24.0182 14.3081 24.302C14.171 24.5043 13.9003 24.4749 13.7567 24.3444C13.5871 24.1878 13.5545 23.8844 13.5186 23.6006C13.1304 21.2584 12.7161 16.7957 10.1977 14.0097C6.23735 9.6351 0 9.25342 0 9.25342C0 9.25342 0.0358842 16.6815 3.99621 21.0561C6.12317 23.4082 8.84059 24.6086 10.9219 25.2187C12.478 25.6754 13.5512 25.8059 15.1171 25.9005C15.5379 25.9266 15.5934 25.9298 15.9424 25.9462C16.0892 25.9527 16.1153 26.1973 15.9424 26.2332C14.1906 26.5888 13.835 27.5707 13.1826 29.0192C11.8059 32.0693 9.00696 34.7052 4.90637 35.7034C4.19194 35.8763 3.21328 36.0525 3.21328 37.0116V38.2349C3.21328 39.3767 4.28328 39.517 5.11188 39.393C11.8777 38.3621 16.4611 33.0643 17.9519 26.579C18.4837 24.2629 18.898 20.9223 18.898 18.4855V11.1292C18.898 10.3495 18.4511 9.71339 17.6714 9.71339H17.6681Z" fill="black"></path><path fill-rule="evenodd" clip-rule="evenodd" d="M95.5078 24.4521C95.7916 29.8935 99.4746 34.3431 104.41 35.723C105.095 35.9122 105.816 36.0656 105.816 37.0051V38.2284C105.816 39.1875 105.125 39.5268 104.342 39.4289C98.5123 38.6916 93.3123 34.6302 92.0988 28.5984C91.8704 27.4533 92.1346 26.243 93.234 25.633C93.4493 25.5123 93.3482 25.2513 93.1427 25.3101C91.9193 25.7798 90.3339 25.8679 89.4205 25.9234V37.8402C89.4205 38.6166 88.9736 39.256 88.1971 39.256H86.5139C85.7342 39.256 85.2905 38.6199 85.2905 37.8402V11.1292C85.2905 10.3496 85.7375 9.71342 86.5139 9.71342H88.1971C88.9768 9.71342 89.4205 10.3496 89.4205 11.1292V24.1161C89.4205 24.4684 89.5575 24.6609 89.7793 24.6641C90.3176 24.6739 90.3339 23.9269 90.3861 23.5452C90.7058 21.1573 91.7236 16.7402 94.242 13.9576C98.2024 9.58294 104.273 9.25671 104.273 9.25671C104.273 9.25671 104.306 16.3716 100.277 20.681C98.4046 22.684 97.0084 23.7409 95.5045 24.4554L95.5078 24.4521Z" fill="black"></path><path fill-rule="evenodd" clip-rule="evenodd" d="M77.9048 14.3784C75.4516 11.8632 73.7259 12.594 71.2988 11.5696C68.8881 10.5518 68.7739 9.07731 64.7222 9.12298C62.9704 9.14256 59.5255 10.2191 57.2093 11.9154C55.4934 13.1779 54.0939 14.6785 53.0109 16.4205C52.2834 17.5917 51.6179 18.9944 51.2232 20.3841C51.1025 20.8082 50.9916 21.2421 50.897 21.7021H47.6021V11.051C47.6021 10.2713 47.1552 9.63515 46.3788 9.63515H44.6955C43.9191 9.63515 43.4722 10.2713 43.4722 11.051V37.7685C43.4722 38.5481 43.9191 39.1843 44.6955 39.1843H46.3788C47.1585 39.1843 47.6021 38.5481 47.6021 37.7685V27.3131C47.5728 26.3083 46.6528 25.7113 45.8047 25.4993C45.6448 25.4471 45.6905 25.2318 45.8047 25.2155C47.4064 25.2155 49.0049 25.2155 50.6066 25.2155C50.6295 25.9658 50.698 26.7128 50.8154 27.4566C51.2656 30.2915 53.2197 33.7788 54.3843 34.9564C57.6465 38.2513 58.5175 36.7898 60.5792 37.6184C62.6409 38.4437 62.5072 39.9444 67.2831 39.9998C69.0381 40.0194 72.6755 38.9526 74.9656 37.2269C76.2607 36.2515 77.3731 35.1391 78.2963 33.8897C79.6925 32.0041 80.6451 29.8543 81.1083 27.5545C81.4737 25.7407 81.5193 23.8812 81.2421 21.9728C80.831 19.1347 79.1249 15.6344 77.9016 14.3784H77.9048ZM77.024 26.6867C76.6489 28.6473 75.8953 30.3469 74.6426 31.9095C74.026 32.6794 73.3084 33.3743 72.4798 34.0039C70.9563 35.162 68.6891 36.1667 67.4918 36.2548C64.4482 36.4734 64.0698 34.764 62.1549 34.0039C60.178 33.2209 58.4229 34.0528 56.9386 31.9226C56.3416 31.0679 55.2161 28.7158 54.9193 26.8172C54.6713 25.3362 54.6746 23.9138 54.9519 22.5274C55.2879 20.8669 56.0708 19.1151 57.056 17.7613C57.7672 16.7827 58.6284 15.9247 59.656 15.1646C61.1892 14.0261 63.5282 13.2301 64.5558 13.1159C67.6908 12.7701 68.1508 14.4241 69.8406 15.1385C71.5272 15.8497 72.8288 14.8123 75.0863 17.5754C75.7452 18.3811 76.8544 20.6549 77.1317 22.56C77.3209 23.9824 77.2817 25.3427 77.024 26.6867Z" fill="#FC2C38"></path><path fill-rule="evenodd" clip-rule="evenodd" d="M74.0521 6.90134C73.4356 7.60924 72.9169 8.45415 72.5874 9.27623C72.5319 9.41324 72.4373 9.68401 72.3427 9.77861C72.1372 9.9776 71.8762 9.87648 71.8664 9.59266C71.8632 9.43282 71.9969 9.20446 72.0622 9.06419C72.956 7.14601 72.7994 4.72871 71.4717 2.88882C70.8715 2.05696 70.0983 1.42409 69.2338 1C67.7137 3.05846 67.619 5.94225 69.198 8.12467C70.6627 10.1538 73.3377 11.214 75.7941 11.1226C77.9994 11.0411 80.1655 10.082 81.7249 8.28452C82.6448 7.2243 83.245 5.99771 83.5354 4.71892C80.3254 3.34227 76.4596 4.11867 74.0489 6.89808L74.0521 6.90134Z" fill="#FC2C38"></path><path fill-rule="evenodd" clip-rule="evenodd" d="M62.6768 26.641C62.6768 28.0437 63.0258 29.3649 63.6456 30.5198C66.9731 29.4563 69.3839 26.3376 69.3839 22.6578C69.3839 21.2551 69.0348 19.9339 68.415 18.7791C65.0875 19.8425 62.6768 22.9612 62.6768 26.641Z" fill="#FC2C38"></path></svg>